<?xml version="1.0" encoding="UTF-8"?>
<svg xmlns="http://www.w3.org/2000/svg" xmlns:xlink="http://www.w3.org/1999/xlink" width="134px" height="150px" viewBox="0 0 134 150" version="1.1">
<g id="surface1">
<path style=" stroke:none;fill-rule:nonzero;fill:rgb(0.392157%,94.509804%,75.686275%);fill-opacity:1;" d="M 0 87.390625 C 0 69.894531 0.0742188 52.394531 0 34.886719 C 0 29.691406 3.300781 26.398438 6.921875 25.628906 C 7.820312 25.457031 8.734375 25.375 9.648438 25.378906 C 12.070312 25.378906 14.503906 25.378906 16.957031 25.378906 C 18.796875 25.378906 18.796875 25.378906 18.796875 23.46875 C 18.796875 22.011719 18.796875 20.570312 18.796875 19.113281 C 18.847656 16.953125 19.707031 16.089844 21.855469 16.070312 C 24.5 16.070312 27.140625 16.070312 29.78125 16.070312 C 31.433594 16.070312 31.402344 16.070312 31.871094 14.488281 C 33.960938 7.445312 38.40625 2.726562 45.65625 0.980469 C 54.234375 -1.074219 63.066406 3.25 66.664062 11.269531 C 67.148438 12.390625 67.550781 13.542969 67.878906 14.71875 C 68.292969 16.027344 68.253906 16.027344 69.652344 16.027344 C 72.191406 16.027344 74.726562 16.109375 77.253906 16.027344 C 80.1875 15.914062 81.097656 17.390625 80.941406 19.652344 C 80.835938 21.097656 80.941406 22.554688 80.941406 23.996094 C 80.941406 25.253906 81.078125 25.378906 82.351562 25.390625 C 85.160156 25.390625 87.957031 25.390625 90.765625 25.390625 C 95.03125 25.355469 98.71875 28.335938 99.558594 32.496094 C 99.617188 32.703125 99.648438 32.917969 99.664062 33.128906 C 99.664062 36.519531 99.664062 39.894531 99.664062 43.28125 C 99.636719 44.699219 98.476562 45.832031 97.054688 45.839844 C 95.648438 46.039062 94.320312 45.136719 93.996094 43.761719 C 93.847656 43.132812 93.773438 42.492188 93.773438 41.847656 C 93.773438 39.4375 93.773438 37.015625 93.773438 34.574219 C 93.773438 32.445312 92.835938 31.292969 90.726562 31.175781 C 87.824219 31.019531 84.898438 31.113281 81.984375 31.113281 C 81.253906 31.113281 80.941406 31.53125 80.941406 32.246094 C 80.941406 33.804688 80.855469 35.363281 80.941406 36.921875 C 81.097656 39.273438 79.898438 40.464844 77.484375 40.457031 C 66.800781 40.394531 56.117188 40.457031 45.4375 40.457031 L 22.972656 40.496094 C 22.429688 40.496094 21.929688 40.496094 21.355469 40.496094 C 20.695312 40.519531 20.058594 40.265625 19.589844 39.800781 C 19.125 39.335938 18.871094 38.703125 18.890625 38.046875 C 18.808594 36.664062 18.890625 35.261719 18.890625 33.890625 C 18.890625 33.347656 18.890625 32.851562 18.890625 32.277344 C 18.890625 31.707031 18.597656 31.238281 17.929688 31.238281 C 14.910156 31.238281 11.882812 31.238281 8.875 31.355469 C 7.328125 31.363281 6.066406 32.589844 6.015625 34.128906 C 5.957031 34.605469 5.9375 35.089844 5.953125 35.574219 C 5.953125 58.867188 5.953125 82.167969 5.953125 105.46875 C 5.953125 116.644531 5.953125 127.8125 5.953125 138.96875 C 5.953125 139.242188 5.953125 139.511719 5.953125 139.769531 C 5.953125 142.480469 7.207031 143.6875 9.953125 143.6875 L 89.316406 143.6875 C 90.175781 143.699219 91.03125 143.601562 91.863281 143.398438 C 93.003906 143.113281 93.820312 142.113281 93.867188 140.945312 C 93.898438 140.351562 93.898438 139.757812 93.867188 139.167969 C 93.867188 132.082031 93.867188 124.996094 93.867188 117.910156 C 93.863281 117.265625 93.917969 116.625 94.035156 115.996094 C 94.257812 114.519531 95.628906 113.496094 97.117188 113.699219 C 98.59375 113.792969 99.714844 115.054688 99.632812 116.527344 C 99.632812 124.734375 99.695312 132.953125 99.632812 141.164062 C 99.425781 145.355469 96.203125 148.785156 92.011719 149.265625 C 89.328125 149.484375 86.621094 149.421875 83.925781 149.445312 C 80.585938 149.445312 77.246094 149.445312 73.902344 149.445312 L 54.53125 149.445312 C 51.292969 149.445312 48.066406 149.445312 44.839844 149.445312 C 41.4375 149.445312 38.042969 149.445312 34.648438 149.445312 L 26.292969 149.445312 C 22.523438 149.445312 18.753906 149.445312 14.984375 149.445312 C 12.613281 149.445312 10.234375 149.445312 7.875 149.234375 C 3.675781 148.886719 0.371094 145.523438 0.113281 141.339844 C 0 135.605469 0 129.859375 0 124.089844 C 0 111.851562 0 99.609375 0 87.371094 Z M 24.800781 22.148438 C 24.800781 22.9375 24.695312 23.507812 24.695312 24.089844 C 24.695312 26.773438 24.695312 29.453125 24.695312 32.132812 C 24.695312 34.628906 24.695312 34.648438 27.121094 34.648438 L 73.191406 34.648438 C 73.714844 34.648438 74.238281 34.554688 74.863281 34.503906 C 74.863281 30.292969 74.945312 26.261719 74.863281 22.148438 Z M 38.011719 15.746094 C 39.203125 16.140625 60.367188 16.214844 61.964844 15.832031 C 61.652344 11.132812 55.617188 6.324219 49.96875 6.292969 C 44.320312 6.261719 38.503906 10.738281 38.011719 15.746094 Z M 38.011719 15.746094 "/>
<path style=" stroke:none;fill-rule:nonzero;fill:rgb(0.392157%,94.509804%,75.686275%);fill-opacity:1;" d="M 134 50.515625 C 133.824219 53.6875 132.738281 56.742188 130.867188 59.316406 C 120.382812 73.863281 109.882812 88.359375 99.363281 102.8125 C 95.449219 108.214844 91.542969 113.617188 87.644531 119.019531 C 86.960938 119.992188 86.027344 120.757812 84.941406 121.242188 L 63.605469 130.84375 C 63.171875 131.046875 62.710938 131.191406 62.238281 131.269531 C 61.332031 131.484375 60.375 131.238281 59.683594 130.617188 C 58.992188 129.996094 58.652344 129.074219 58.769531 128.152344 C 58.949219 125.804688 59.230469 123.457031 59.472656 121.117188 C 59.753906 118.398438 60.054688 115.683594 60.335938 112.960938 C 60.671875 109.761719 60.941406 106.5625 61.382812 103.371094 C 61.515625 102.636719 61.828125 101.945312 62.289062 101.355469 C 77.117188 80.835938 91.96875 60.328125 106.839844 39.832031 C 108.789062 37.222656 111.621094 35.398438 114.816406 34.699219 C 122.164062 32.867188 129.769531 36.554688 132.851562 43.4375 C 133.707031 45.695312 134.097656 48.101562 134 50.515625 Z M 83.980469 113.753906 L 115.421875 69.957031 L 100.175781 58.898438 C 89.535156 73.675781 79.039062 88.253906 68.429688 103.007812 Z M 126.511719 54.816406 C 128.234375 51.792969 128.925781 48.863281 127.390625 45.796875 C 125.605469 42.222656 122.753906 40.09375 118.578125 40.132812 C 115.695312 40.042969 112.984375 41.472656 111.445312 43.894531 Z M 103.9375 53.851562 L 118.972656 64.75 L 122.796875 59.667969 C 117.667969 55.960938 112.71875 52.394531 107.695312 48.738281 Z M 67.144531 109.417969 L 66.675781 109.566406 C 66.269531 114.03125 65.863281 118.511719 65.421875 123.289062 C 69.839844 121.210938 74.046875 119.488281 78.320312 117.242188 Z M 67.144531 109.417969 "/>
<path style=" stroke:none;fill-rule:nonzero;fill:rgb(0.392157%,94.509804%,75.686275%);fill-opacity:1;" d="M 18.515625 124.878906 L 37.457031 124.878906 C 37.457031 123.746094 37.53125 122.6875 37.582031 121.636719 C 37.6875 119.558594 38.742188 118.644531 40.820312 118.800781 C 41.503906 118.785156 42.167969 119.050781 42.644531 119.539062 C 43.125 120.023438 43.378906 120.6875 43.347656 121.367188 C 43.402344 123.621094 43.402344 125.871094 43.347656 128.121094 C 43.4375 129.425781 42.472656 130.566406 41.164062 130.699219 C 40.535156 130.828125 39.894531 130.890625 39.253906 130.886719 L 16.125 130.886719 C 13.417969 130.8125 12.457031 129.847656 12.449219 127.136719 C 12.449219 118.226562 12.449219 109.320312 12.449219 100.421875 C 12.449219 98 13.492188 96.960938 15.851562 96.960938 C 21.40625 96.960938 26.964844 96.960938 32.558594 96.960938 C 33.429688 96.863281 34.292969 97.179688 34.882812 97.820312 C 35.476562 98.457031 35.726562 99.339844 35.558594 100.191406 C 35.5625 101.363281 34.738281 102.375 33.582031 102.613281 C 32.960938 102.769531 32.324219 102.851562 31.683594 102.851562 C 27.964844 102.851562 24.238281 102.851562 20.519531 102.851562 L 18.515625 102.851562 Z M 18.515625 124.878906 "/>
<path style=" stroke:none;fill-rule:nonzero;fill:rgb(0.392157%,94.509804%,75.686275%);fill-opacity:1;" d="M 18.503906 59.316406 C 18.503906 59.898438 18.410156 60.261719 18.410156 60.636719 C 18.410156 66.960938 18.410156 73.289062 18.410156 79.628906 C 18.410156 81.40625 18.410156 81.417969 20.226562 81.425781 C 25.398438 81.425781 30.574219 81.425781 35.753906 81.425781 C 37.488281 81.425781 37.53125 81.355469 37.574219 79.585938 C 37.574219 78.890625 37.574219 78.195312 37.65625 77.507812 C 37.847656 76.0625 39.136719 75.007812 40.601562 75.109375 C 42.023438 75.070312 43.226562 76.15625 43.328125 77.570312 C 43.410156 79.980469 43.410156 82.40625 43.328125 84.84375 C 43.324219 85.53125 43.023438 86.183594 42.507812 86.636719 C 41.992188 87.089844 41.304688 87.304688 40.621094 87.226562 C 37.980469 87.277344 35.339844 87.226562 32.695312 87.226562 L 15.988281 87.226562 C 13.324219 87.226562 12.417969 86.300781 12.40625 83.648438 L 12.40625 57.039062 C 12.40625 56.832031 12.40625 56.613281 12.40625 56.394531 C 12.335938 55.570312 12.644531 54.757812 13.246094 54.183594 C 13.84375 53.609375 14.671875 53.335938 15.496094 53.433594 C 19.539062 53.433594 23.578125 53.433594 27.632812 53.433594 C 29.355469 53.433594 31.078125 53.433594 32.800781 53.433594 C 33.84375 53.453125 34.800781 54.027344 35.304688 54.941406 C 35.808594 55.851562 35.785156 56.960938 35.242188 57.851562 C 34.773438 58.730469 33.828125 59.25 32.832031 59.179688 L 20.050781 59.179688 C 19.578125 59.199219 19.109375 59.261719 18.503906 59.316406 Z M 18.503906 59.316406 "/>
<path style=" stroke:none;fill-rule:nonzero;fill:rgb(0.392157%,94.509804%,75.686275%);fill-opacity:1;" d="M 31.097656 67.691406 L 32.832031 65.984375 C 35.691406 63.148438 38.523438 60.28125 41.414062 57.476562 C 41.988281 56.769531 42.867188 56.386719 43.773438 56.441406 C 44.683594 56.496094 45.507812 56.988281 45.988281 57.757812 C 46.71875 58.65625 46.761719 59.929688 46.09375 60.875 C 45.792969 61.3125 45.441406 61.714844 45.050781 62.078125 C 41.289062 65.839844 37.523438 69.589844 33.75 73.332031 C 33.5625 73.53125 33.375 73.714844 33.175781 73.894531 C 31.808594 75.109375 30.617188 75.246094 29.292969 74.058594 C 27.578125 72.523438 25.941406 70.878906 24.382812 69.175781 C 23.425781 68.050781 23.566406 66.367188 24.695312 65.414062 C 25.742188 64.414062 27.363281 64.324219 28.519531 65.195312 C 29.355469 65.902344 30.128906 66.765625 31.097656 67.691406 Z M 31.097656 67.691406 "/>
<path style=" stroke:none;fill-rule:nonzero;fill:rgb(0.392157%,94.509804%,75.686275%);fill-opacity:1;" d="M 31.066406 111.257812 C 31.597656 110.75 32.039062 110.363281 32.445312 109.960938 C 35.339844 107.089844 38.242188 104.214844 41.125 101.324219 C 41.707031 100.613281 42.5625 100.171875 43.484375 100.109375 C 44.644531 100.027344 45.738281 100.667969 46.230469 101.71875 C 46.789062 102.679688 46.671875 103.886719 45.9375 104.722656 C 45.699219 105.011719 45.441406 105.289062 45.164062 105.542969 C 41.363281 109.332031 37.554688 113.121094 33.738281 116.910156 C 31.839844 118.800781 30.417969 118.8125 28.519531 116.910156 C 27.277344 115.714844 26.054688 114.511719 24.851562 113.273438 C 23.484375 111.859375 23.433594 110.25 24.65625 109.015625 C 25.226562 108.429688 26.015625 108.105469 26.835938 108.125 C 27.652344 108.144531 28.425781 108.503906 28.96875 109.117188 C 29.636719 109.8125 30.285156 110.488281 31.066406 111.257812 Z M 31.066406 111.257812 "/>
</g>
</svg>
