<?xml version="1.0" encoding="UTF-8"?>
<svg xmlns="http://www.w3.org/2000/svg" xmlns:xlink="http://www.w3.org/1999/xlink" width="134px" height="150px" viewBox="0 0 134 150" version="1.1">
<g id="surface1">
<path style=" stroke:none;fill-rule:nonzero;fill:rgb(0.392157%,94.509804%,75.686275%);fill-opacity:1;" d="M 71.390625 2.835938 C 66.273438 2.851562 61.175781 3.511719 56.179688 4.804688 C 39.246094 9.140625 25.890625 20.433594 16.558594 38.390625 C 16.363281 38.742188 16.179688 39.097656 15.933594 39.523438 L 15.542969 40.261719 C 15.148438 40.988281 14.488281 41.46875 13.75 41.5625 L 13.484375 41.5625 C 12.835938 41.566406 12.210938 41.273438 11.75 40.742188 L 0.210938 27.320312 L 0.210938 69.4375 L 36.648438 69.4375 C 31.875 63.882812 27.121094 58.351562 22.386719 52.84375 C 21.023438 51.566406 20.660156 49.324219 21.535156 47.558594 C 30.992188 26.480469 49.757812 13.261719 70.21875 13.265625 C 73.707031 13.265625 77.1875 13.644531 80.613281 14.398438 C 90.542969 16.480469 99.730469 21.902344 107.039062 29.984375 C 120.699219 45.019531 126.554688 63.414062 124.273438 84.644531 C 123.050781 96.464844 118.828125 107.597656 112.148438 116.628906 C 102.863281 129.832031 89.320312 138.027344 74.683594 139.300781 C 73.074219 139.457031 71.464844 139.527344 69.890625 139.527344 C 58.382812 139.542969 47.191406 135.171875 38.027344 127.085938 C 29.800781 119.984375 23.421875 110.390625 19.582031 99.351562 C 18.070312 99.351562 16.460938 99.351562 14.421875 99.351562 L 9.96875 99.351562 C 17.996094 127.09375 39.300781 146.765625 64.378906 149.589844 C 66.597656 149.84375 68.84375 149.972656 71.011719 149.972656 C 83.253906 150.011719 95.21875 145.742188 105.328125 137.726562 C 119.875 126.71875 129.8125 109.15625 132.742188 89.277344 C 133.058594 87.335938 133.265625 85.378906 133.484375 83.3125 C 133.582031 82.40625 133.679688 81.511719 133.789062 80.617188 L 133.789062 72.117188 L 133.691406 71.28125 C 133.621094 70.527344 133.535156 69.777344 133.460938 69.011719 C 132.070312 52.386719 125.722656 36.847656 115.515625 25.082031 C 102.683594 10.316406 87.8125 2.835938 71.390625 2.835938 L 71.390625 0 Z M 71.390625 2.835938 "/>
<path style=" stroke:none;fill-rule:nonzero;fill:rgb(0.392157%,94.509804%,75.686275%);fill-opacity:1;" d="M 85.1875 95.328125 L 91.703125 99.863281 L 94.667969 94.195312 L 89.789062 90.765625 C 83.46875 86.441406 76.929688 81.851562 70.476562 77.402344 C 68.839844 76.414062 67.851562 74.410156 67.9375 72.273438 C 67.9375 64.664062 67.9375 56.925781 67.9375 49.441406 L 67.9375 43.164062 L 62.425781 43.164062 L 62.425781 50.25 C 62.425781 59.886719 62.425781 69.835938 62.425781 79.640625 C 70.050781 84.855469 77.746094 90.171875 85.1875 95.328125 Z M 85.1875 95.328125 "/>
</g>
</svg>
