<svg id="Layer_1" data-name="Layer 1" xmlns="http://www.w3.org/2000/svg" viewBox="0 0 126.69 140.05"><defs><style>.cls-1{fill:#01f1c1;}</style></defs><title>NuagePro</title><path class="cls-1" d="M56.34,49.49V43H55.09c-8.2,0-16.4,0-24.6,0A9.49,9.49,0,0,1,21,33.6c-.07-4.78,0-9.57,0-14.35,0-3,0-6.05,0-9.08C21,4.06,25,0,31.09,0c8.83,0,17.66,0,26.5,0Q76.7,0,95.8,0a9.65,9.65,0,0,1,5.85,1.78,9.15,9.15,0,0,1,4,7.63c0,4.51,0,9-.06,13.52,0,3.65,0,7.31,0,11,0,3.26-2.66,7.3-5.76,8.24a16.94,16.94,0,0,1-4.73.81c-7.84.08-15.69,0-23.54,0H70.37v6.51h1.26c4.57,0,9.15,0,13.72,0a9.94,9.94,0,0,1,8.89,4.69q12.87,19,25.79,38c1.67,2.47,3.35,5,4.8,7.55a16.18,16.18,0,0,1,1.84,8c0,7.49,0,15,0,22.49A9.51,9.51,0,0,1,117,140c-14.08,0-28.16,0-42.24,0H10.34a10.2,10.2,0,0,1-6.44-1.9A9.29,9.29,0,0,1,0,130.44c0-7.4,0-14.79,0-22.18a20.21,20.21,0,0,1,3.6-11.7q14.54-21.32,29-42.66a9.42,9.42,0,0,1,8.18-4.4H56.34ZM63.28,137h41.38c4.19,0,8.37,0,12.56,0a6.53,6.53,0,0,0,6.51-6.64c0-7.46,0-14.92-.07-22.38,0-1.33-.29-2.65-.42-4-.1-.94-.6-1.15-1.49-1.14-5.93,0-11.87,0-17.8,0q-35.62,0-71.25-.09c-4.64,0-9.28.07-13.91.08s-9.29,0-13.94,0c-.89,0-1.3.28-1.4,1.12A37.15,37.15,0,0,0,3,107.75c0,7.6-.06,15.2,0,22.8a7.07,7.07,0,0,0,.88,3.19c1.33,2.42,3.54,3.3,6.27,3.3Q36.72,137,63.28,137ZM5.1,99.82H121.62c-.47-.73-.8-1.26-1.15-1.77l-12-17.62q-8.4-12.34-16.79-24.7a7,7,0,0,0-6.23-3.28c-4.64,0-9.29,0-13.93,0H70.3c0,1.91,0,3.69,0,5.48a7,7,0,0,1-13.91-.39c0-1.67,0-3.35,0-5.09H55.08c-4.61,0-9.22,0-13.83,0a7.09,7.09,0,0,0-6.36,3.42c-3.08,4.59-6.2,9.14-9.31,13.71L6,98.46C5.68,98.85,5.44,99.26,5.1,99.82ZM63.35,3h0C52.59,3,41.82,3.1,31.06,3A6.85,6.85,0,0,0,24,10c.13,7.59,0,15.19,0,22.79a8.64,8.64,0,0,0,.87,3.83C26.18,39.08,28.42,40,31.14,40c21.54,0,43.08-.06,64.62,0a7.05,7.05,0,0,0,7-7c-.16-7.63-.21-15.27,0-22.9A6.91,6.91,0,0,0,95.55,3C84.82,3.12,74.08,3,63.35,3ZM59.47,43a2,2,0,0,0-.11.3c0,4.82,0,9.64,0,14.45A3.87,3.87,0,0,0,62,61.39a4,4,0,0,0,5.39-3.94c0-4.57,0-9.14,0-13.71a4.91,4.91,0,0,0-.1-.73Z"/><path class="cls-1" d="M63.38,109.71h52.24c1.76,0,2.18.42,2.18,2.16,0,5.7,0,11.4,0,17.1,0,1.73-.47,2.19-2.19,2.19H11.23c-2,0-2.34-.4-2.34-2.35V112c0-2,.36-2.32,2.35-2.31,5.1,0,10.2.05,15.3.05H63.38Zm51.33,18.42V112.72H12v15.41Z"/><path class="cls-1" d="M63.77,95.36H20c-2,0-2.72-.86-1.9-2.72a69.88,69.88,0,0,1,3.76-7.3c3.24-5.43,6.63-10.78,9.92-16.18a2.49,2.49,0,0,1,2.4-1.33q13.77.08,27.55.06,15.74,0,31.46-.06A2.85,2.85,0,0,1,96,69.34c4.25,7.21,8.56,14.38,12.82,21.58a8.86,8.86,0,0,1,.84,2c.48,1.64-.12,2.4-1.84,2.4Q85.79,95.38,63.77,95.36Zm1.53-3h41c-1.06-1.9-2.06-3.62-3-5.39a1.45,1.45,0,0,0-1.47-.87q-17.67,0-35.34,0c-.37,0-.74,0-1.15.06Zm-22.75,0H62.23V86.08c-5.86,0-11.66,0-17.45,0a.82.82,0,0,0-.61.41C43.61,88.42,43.1,90.34,42.55,92.33Zm-21.12-.14c.17.13.19.17.22.17,5.76,0,11.52,0,17.28,0a.89.89,0,0,0,.63-.51c.55-1.88,1-3.77,1.57-5.67a1.55,1.55,0,0,0-.38-.11c-5.13,0-10.26,0-15.38,0a1.41,1.41,0,0,0-.93.66c-.68,1.1-1.29,2.25-1.92,3.38C22.14,90.82,21.78,91.52,21.43,92.19Zm61-9.09c-.41-1.52-.8-2.86-1.13-4.23a.93.93,0,0,0-1.09-.82c-2.85,0-5.7,0-8.55,0H65.34V83.1Zm-20.2-5c-5.16,0-10.22,0-15.27,0a.78.78,0,0,0-.61.4c-.45,1.5-.84,3-1.27,4.57H62.26Zm38.71,5c-.92-1.52-1.8-2.9-2.62-4.32a1.26,1.26,0,0,0-1.26-.69c-4,0-7.94,0-11.92,0-.29,0-.58.05-1,.08l1.33,4.92Zm-74.39.05c5.13,0,10,0,14.89,0a.68.68,0,0,0,.55-.32c.46-1.53.88-3.07,1.35-4.73-4.53,0-8.88,0-13.23,0a.91.91,0,0,0-.69.36C28.52,79.9,27.62,81.4,26.58,83.12ZM79.09,70.83c-4.45,0-8.84,0-13.22,0a.9.9,0,0,0-.63.58c-.06,1.18,0,2.36,0,3.63H80.28ZM47.3,75.05h15V70.9H48.42ZM96,75.11c-.75-1.21-1.43-2.18-2-3.22a1.84,1.84,0,0,0-1.92-1.08c-2.88.07-5.77,0-8.65,0H82.23c.37,1.4.67,2.62,1,3.82a.88.88,0,0,0,.7.44C87.91,75.12,91.85,75.11,96,75.11ZM45.33,70.84c-3.68,0-7.19,0-10.7,0a.75.75,0,0,0-.54.23c-.84,1.27-1.65,2.56-2.59,4H43.65c.2,0,.53-.15.58-.3C44.61,73.52,44.94,72.24,45.33,70.84Z"/><path class="cls-1" d="M63.34,34.1H32.21c-1.93,0-2.35-.46-2.34-2.36,0-6.88,0-13.77,0-20.65,0-1.77.41-2.2,2.16-2.2H94.51c1.93,0,2.3.37,2.3,2.28q0,7.08,0,14.15c0,2.31,0,4.63,0,7,0,1.26-.61,1.83-1.79,1.83H63.34Zm-30.42-3H90.47c.67,0,1.34,0,2,0,1.37,0,1.37,0,1.37-1.34L93.79,13c0-.33,0-.67-.05-1.05H32.92Z"/><path class="cls-1" d="M63.46,115.16c4.53,0,9.07,0,13.6,0a5.48,5.48,0,0,1,5.74,5.78,5.42,5.42,0,0,1-5.27,5.27c-4.68.07-9.36,0-14,0s-9.49,0-14.24,0a5.53,5.53,0,0,1,.27-11c4.65,0,9.29,0,13.93,0Zm-.12,8.09h0c4.53,0,9.07,0,13.6,0a2.64,2.64,0,0,0,2.62-1.42A2.59,2.59,0,0,0,77,118.13q-13.65,0-27.31,0a3.55,3.55,0,0,0-1.13.16,2.63,2.63,0,0,0-1.67,2.85,2.54,2.54,0,0,0,2.64,2.11C54.13,123.26,58.74,123.25,63.34,123.25Z"/><path class="cls-1" d="M83.32,27.41c-1.2,0-2.4,0-3.59,0s-1.65-.59-1.63-1.51.62-1.46,1.69-1.47q3.58,0,7.17,0a1.5,1.5,0,1,1,.05,3C85.78,27.43,84.55,27.41,83.32,27.41Z"/></svg>