<svg id="Layer_1" data-name="Layer 1" xmlns="http://www.w3.org/2000/svg" viewBox="0 0 127.55 134"><defs><style>.cls-1{fill:#01f1c1;}</style></defs><title>NuagePro</title><path class="cls-1" d="M82.55,67.07l16.3-16.29c-1.5-2.22-1.3-3.29.94-4.93l10.64-7.75c1.9-1.38,2.85-1.31,4.56.38l8.37,8.35c1.45,1.46,1.53,2.61.26,4.25l-8.16,10.49c-1.59,2-2.76,2.26-4.76.92L94.84,78.35c.18.18.52.51.87.82q13.37,12.26,26.74,24.5c3.82,3.52,5.77,7.9,4.89,13.13-1.26,7.49-8.56,11.58-16,9.17a16.14,16.14,0,0,1-7-4.61Q92.8,108.81,81.23,96.28c-.32-.35-.65-.69-1.13-1.19-.44,3.57-2.48,5.88-4.8,8a9.05,9.05,0,0,0-1.82,2.28c-1.32,2.54-2.5,5.15-3.81,7.69a11.37,11.37,0,0,1-2,3q-8.74,8.36-17.6,16.58a5.59,5.59,0,0,1-5.43,1.09c-4.6-1.13-8.24-3.85-11.39-7.24a22.54,22.54,0,0,1-5.53-9.09,6.36,6.36,0,0,1,1.58-6.66c5.32-5.57,10.53-11.24,15.82-16.83a8.45,8.45,0,0,1,2.22-1.68c2.59-1.31,5.27-2.46,7.84-3.81a18.08,18.08,0,0,0,3-2.23c.65-.54,1.19-1.22,1.83-1.77,2.13-1.82,4.44-3.2,7.43-2.86l0-.46A4.12,4.12,0,0,0,66,80.91c-8.16,1.8-15.24-.34-21.29-6-4.1-3.81-5.76-8.76-6.13-14.19A53,53,0,0,1,38.78,55a2.61,2.61,0,0,1,1.77-2.58,2.74,2.74,0,0,1,3.11,1c2.68,2.71,5.35,5.42,8.09,8a2.93,2.93,0,0,0,2,.72c2.55-.11,5.09-.41,7.63-.57.92-.06,1.33-.36,1.37-1.36.13-2.54.43-5.08.53-7.63a2.81,2.81,0,0,0-.69-1.85c-2.64-2.74-5.35-5.41-8.06-8.09a2.8,2.8,0,0,1-1-3.11,3,3,0,0,1,2.83-1.86,24.54,24.54,0,0,1,13.9,2c7.56,3.68,11.3,10.07,12.06,18.23a28,28,0,0,1-.6,7C81.51,66,81.6,66.62,82.55,67.07ZM62.22,43c1.92,1.9,3.74,3.61,5.42,5.44a3.61,3.61,0,0,1,1,2.33C68.4,55.2,68,59.66,67.6,64.11a2.42,2.42,0,0,1-2.46,2.37c-4.06.37-8.12.64-12.16,1.11a4.52,4.52,0,0,1-4.25-1.66c-1.45-1.61-3.06-3.08-4.75-4.77,0,.48,0,.66,0,.83,1.32,11.45,13.69,16.46,22,13.38a3.44,3.44,0,0,1,4.27,1.1c2.41,2.77,4.94,5.43,7.43,8.13q15.3,16.59,30.58,33.18a10.72,10.72,0,0,0,5.38,3.36c5.23,1.27,9.38-2.53,8.55-7.82a10.22,10.22,0,0,0-3.5-6L77,69.26c-1.43-1.31-1.61-2-1-3.79a17.41,17.41,0,0,0,.64-9.9A15.72,15.72,0,0,0,62.22,43Zm13.2,47-4-4.3a13.58,13.58,0,0,1-1.23,1.43,2.22,2.22,0,0,1-2.85.33c-1.19-.87-2.08-.45-3,.27s-1.45,1.32-2.21,2a38.4,38.4,0,0,1-4.71,3.69c-2.3,1.35-4.82,2.33-7.22,3.51A6,6,0,0,0,48.5,98c-5.07,5.37-10.08,10.79-15.16,16.14a1.85,1.85,0,0,0-.42,2.28A21.75,21.75,0,0,0,45,128.38a2.25,2.25,0,0,0,2.65-.58c3.93-3.72,7.86-7.45,11.92-11,3.51-3.11,6.43-6.56,7.77-11.15a7.1,7.1,0,0,1,.45-1A15.36,15.36,0,0,1,71.94,99a14.72,14.72,0,0,0,2.42-2.84c.24-.33.4-1.08.2-1.33C73.07,92.91,73.7,91.41,75.42,90ZM86.33,70.63l4.41,4L108,57.32c1.68-1.68,2.39-1.8,4.57-.68,1.9-2.43,3.8-4.88,5.62-7.22l-6.06-6.06-7.47,5.45c1.12,2,1,2.82-.52,4.35Q96,61.34,87.85,69.48A13.31,13.31,0,0,1,86.33,70.63Z"/><path class="cls-1" d="M0,67.82c.3-3.77,1.47-6.55,4.63-8.23,2-1.05,3.85-2.28,5.82-3.34a2,2,0,0,0,1.23-2.14,6.87,6.87,0,0,1,0-1.2,2.66,2.66,0,0,0-1.56-2.81C8.05,48.88,6.06,47.5,4,46.19A9,9,0,0,1,.59,35.67c1-2.54,2-5.06,3.13-7.56,1.64-3.75,6.86-6,10.21-4.8,2.22.8,4.58,1.18,6.85,1.86A2.17,2.17,0,0,0,23,24.64c2-1.54,2.92-3.26,1.78-5.84a33.19,33.19,0,0,1-1.34-4.91A9,9,0,0,1,28.26,3.63Q31.95,2,35.7.56A9,9,0,0,1,46.34,4.23C47.56,6.32,48.81,8.39,50,10.5a2.08,2.08,0,0,0,1.78,1.15c2.55.34,4.47-.2,5.52-2.88A32.51,32.51,0,0,1,59.8,4.34,9,9,0,0,1,70.39.52c2.58,1,5.15,2.05,7.68,3.18a8.91,8.91,0,0,1,4.78,10.07C82.22,16.2,81.54,18.61,81,21a2.12,2.12,0,0,0,.32,1.53c1.54,2.15,3.32,3.45,6.18,2.08,1.46-.7,3.24-.72,4.76-1.32,3.16-1.25,8.4.87,10.16,4.63.78,1.66,1.45,3.37,2.12,5.08a2.63,2.63,0,1,1-4.85,2c-.62-1.38-1.16-2.81-1.75-4.21a3.57,3.57,0,0,0-4.63-2.29c-2.64.69-5.28,1.36-7.9,2.09a4,4,0,0,1-3.46-.49A19.43,19.43,0,0,1,76,24.21a4,4,0,0,1-.45-3.46c.77-2.66,1.43-5.36,2.13-8A3.55,3.55,0,0,0,75.63,8.4c-2.25-1-4.52-1.93-6.81-2.84a3.55,3.55,0,0,0-4.58,1.63C62.82,9.62,61.38,12.05,60,14.5a2.91,2.91,0,0,1-2.53,1.73c-2.85.05-5.71.05-8.56,0a3.17,3.17,0,0,1-2.82-2c-1.34-2.42-2.77-4.8-4.17-7.19A3.59,3.59,0,0,0,37.54,5.5c-2.38.93-4.73,1.91-7.07,2.93a3.51,3.51,0,0,0-1.94,4.22c.71,2.72,1.4,5.45,2.16,8.16a4,4,0,0,1-.47,3.34,18.91,18.91,0,0,1-6,6,4.07,4.07,0,0,1-3.47.44c-2.66-.76-5.35-1.43-8-2.13a3.56,3.56,0,0,0-4.24,1.94c-1,2.33-2,4.69-2.94,7.06A3.6,3.6,0,0,0,7,41.82c2.55,1.67,5.15,3.25,7.63,5a3.7,3.7,0,0,1,1.55,2.29,62.26,62.26,0,0,1,0,8.42,3.52,3.52,0,0,1-1.56,2.27c-2.39,1.57-4.92,2.93-7.39,4.37A3.59,3.59,0,0,0,5.6,68.78c.9,2.29,1.85,4.55,2.83,6.81a3.5,3.5,0,0,0,4.29,2.06c2.77-.72,5.51-1.55,8.31-2.14a4.68,4.68,0,0,1,2.93.36A16.92,16.92,0,0,1,30.3,82.1a3.84,3.84,0,0,1,.39,3.22c-.7,2.5-1.35,5-2,7.51s-.24,3.44,1.81,4.92a2.56,2.56,0,0,1,1.18,2.89,2.36,2.36,0,0,1-2.29,1.94,4,4,0,0,1-2-.58c-3-1.68-5.25-6.45-4-9.85a51.33,51.33,0,0,0,1.79-6.87,2.71,2.71,0,0,0-.42-1.89c-1.46-2.13-3.26-3.19-6-1.93a29.26,29.26,0,0,1-4.9,1.35A8.91,8.91,0,0,1,3.65,77.87c-1-2.42-2.07-4.86-3-7.32A17.67,17.67,0,0,1,0,67.82Z"/></svg>