<?xml version="1.0" encoding="utf-8"?>
<!-- Generator: Adobe Illustrator 23.0.6, SVG Export Plug-In . SVG Version: 6.00 Build 0)  -->
<svg version="1.1" id="Layer_1" xmlns="http://www.w3.org/2000/svg" xmlns:xlink="http://www.w3.org/1999/xlink" x="0px" y="0px"
	 viewBox="0 0 1920 517.05" style="enable-background:new 0 0 1920 517.05;" xml:space="preserve">
<style type="text/css">
	.st0{fill:url(#SVGID_1_);}
	.st1{fill:#666666;}
</style>
<g>
	<linearGradient id="SVGID_1_" gradientUnits="userSpaceOnUse" x1="960" y1="525.4854" x2="960" y2="223.5955">
		<stop  offset="0.1314" style="stop-color:#666666;stop-opacity:0"/>
		<stop  offset="0.5484" style="stop-color:#666666;stop-opacity:0.5"/>
		<stop  offset="1" style="stop-color:#666666"/>
	</linearGradient>
	<path class="st0" d="M4.97,517.05H1920V161.92c-3.21-0.61-6.45-1.22-9.72-1.84c-244.6-46.31-543.25-92.87-880.86-38.89
		C631.99,184.74,450.73,218.56,0,218.56v295.85C1.6,515.3,3.25,516.18,4.97,517.05z"/>
	<path class="st1" d="M794.31,67.37c72.42-11.65,464.62-93.65,927.63,8.47c69.64,15.36,134.71,31.57,198.06,47.27V55.23
		c-70.58-7.95-152.63-18.12-254.24-31.31c-252.12-32.73-460.1-30.54-645.29-1.53C895.93,41.91,794.31,67.37,794.31,67.37z"/>
	<path class="st1" d="M0,137.09c160.78,19.96,322.82,28.45,480.3,20.45c130.6-6.64,285.79-24.86,393.75-45.33
		c573.14-108.7,1036.24,29.87,1036.24,29.87c-29.51-11.2-447.7-144.85-974.16-72.59C520.08,126.59,326.76,107.55,0,53.01V137.09z"/>
</g>
</svg>
