<svg id="Layer_1" data-name="Layer 1" xmlns="http://www.w3.org/2000/svg" viewBox="0 0 111.17 229.18"><defs><style>.cls-1{fill:#01f1c1;}</style></defs><title>NuagePro</title><path class="cls-1" d="M77.7,190.22V194q0,13.75,0,27.5c0,4.66-1.72,6.67-6.3,7.47a18,18,0,0,1-3,.2c-13.85,0-27.71,0-41.56,0a14.9,14.9,0,0,1-4.2-.59,6.07,6.07,0,0,1-4.42-5.92c0-.11,0-.21,0-.31Q18,209.68,17.79,197c0-1.11.18-2.23.22-3.34s0-2,0-3.29c-1.49-.06-2.77-.14-4.06-.15-2.14,0-4.29-.15-6.41,0-4,.33-7.09-2.3-7.52-7.06,0-.61,0-1.22,0-1.83Q0,120.55,0,59.75c0-2.17.09-4.27,1.57-6.06a7.28,7.28,0,0,1,5.82-2.84h4c.06-1.27.15-2.35.15-3.43,0-12.84,0-25.67,0-38.5,0-3.79,1.57-6.52,4.91-8.06A11.12,11.12,0,0,1,20.86.09C31.55,0,42.25.06,52.94.06,64.35.06,75.76.2,87.16,0,92.43-.09,96,1.8,97.71,7.24h12.72c.35.52.55.69.55.85.06,5.5.35,11,.06,16.49a8.31,8.31,0,0,1-8.94,8.08c-4.67-.23-9.37-.08-14,0a32.07,32.07,0,0,0-3.6.44V50.68l3.37.16c4.53.21,7.32,3,7.46,7.6,0,.51,0,1,0,1.53q0,60.81,0,121.61A12.8,12.8,0,0,1,94.6,186a6.06,6.06,0,0,1-6.12,4.18c-2.45,0-4.89,0-7.34,0Zm6.75-127.5c.65.11,1,.19,1.25.21,1.19.09,2.61-.18,2.84,1.55.16,1.11-.81,1.65-3,1.65q-37.57,0-75.15,0a4.77,4.77,0,0,1-2.09-.22,2.14,2.14,0,0,1-1.12-1.53c0-.49.78-1.17,1.33-1.34a15,15,0,0,1,3-.25c-.1-3,.36-5.58-.3-8.2-.76-.06-1.36-.12-2-.15C5,54.23,3.55,54.76,3.57,60q.11,53.61,0,107.23c0,.71,0,1.42,0,2.13.15,2,.77,2.77,2.69,3.1a25.06,25.06,0,0,0,4.23.42q37.42,0,74.85,0a21.62,21.62,0,0,0,3.92-.46,2.69,2.69,0,0,0,2.34-2.78c0-.71,0-1.43,0-2.14V59.65a20.85,20.85,0,0,0-.09-2.74,2.52,2.52,0,0,0-2.4-2.38c-1.56-.11-3.15,0-4.75.07Zm-2-59.28c-.87-.09-1.46-.19-2-.19q-29.63,0-59.24,0c-4.53,0-6.41,2-6.42,6.6q0,25,0,50.09c0,.89.1,1.78.15,2.62,3.41.63,63.41.51,65.85-.16V59.15q0-23.35,0-46.72C80.7,9.38,80.67,6.35,82.42,3.44ZM74.51,183.18a5.84,5.84,0,0,0-1.2-.37q-24.75,0-49.5,0a15.8,15.8,0,0,0-1.81.16c-.09,0-.17.11-.24.17l-.28.3c0,.63-.1,1.33-.1,2q0,17.72,0,35.44a12.4,12.4,0,0,0,.06,1.83,3.41,3.41,0,0,0,2.82,2.81,13.84,13.84,0,0,0,2.14.06H69.47a13.75,13.75,0,0,0,2.13-.06,3.42,3.42,0,0,0,2.84-2.8,16.37,16.37,0,0,0,.06-2.43q0-17,0-33.92Zm17.12-7.24h-88c0,2.37,0,4.9,0,7.41.06,2.06,1.08,3.41,3.07,3.51,3.53.19,7.07,0,10.79,0v-3.85a21.51,21.51,0,0,1-2.22-.36,1.78,1.78,0,0,1,.15-3.47,12.52,12.52,0,0,1,2.13-.1H78.37a10.69,10.69,0,0,1,2.12.11A1.49,1.49,0,0,1,81.84,181a2.59,2.59,0,0,1-1.1,1.62,8.1,8.1,0,0,1-2.36.49v3.84c3.45,0,6.7.13,9.93,0,2.18-.11,3.25-1.42,3.3-3.6C91.68,180.86,91.63,178.43,91.63,175.94ZM88,3.89A8.18,8.18,0,0,1,88,5.34a36,36,0,0,0-.69,4.45c-.09,5.29,0,10.58,0,15.86a9.31,9.31,0,0,1-.11,2.12c-.1.38-.7.95-.95.89a1.91,1.91,0,0,1-1.23-1,6.76,6.76,0,0,1-.1-2.12v-17c-.84,5-.65,18.45,0,20.6H95.69A15.33,15.33,0,0,1,94.09,21c.07-4.07.07-8.14,0-12.2a7.53,7.53,0,0,0-.79-3.16C92.19,3.57,90.2,3.61,88,3.89Zm19.56,6.73a91.56,91.56,0,0,0-9.8,0V22.22c0,.91,0,1.82,0,2.73a4.7,4.7,0,0,0,4.86,4.44A4.59,4.59,0,0,0,107.48,25C107.62,20.32,107.52,15.66,107.52,10.62Z"/><path class="cls-1" d="M47.63,102.75H19.23c-1.22,0-2.44,0-3.66,0-4.08-.15-6.36-2.45-6.4-6.57q-.09-8.08,0-16.18c0-4.24,2.38-6.56,6.69-6.56q32.07,0,64.14,0c4,0,6.53,2.37,6.63,6.41.14,5.49.14,11,0,16.49-.11,4.14-2.66,6.4-6.94,6.42-10.69,0-21.37,0-32.06,0Zm.5-25.69h-7c-8.45,0-16.9,0-25.35,0-2.53,0-2.92.38-2.94,2.76q-.08,8.25,0,16.49c0,2.3.42,2.61,2.66,2.75s4.43.35,6.64.5a7,7,0,0,0,1.21-.07c1.61-.14,3.22-.4,4.83-.42,6.88-.06,13.76,0,20.65,0,3.56,0,7.13.15,10.68,0s7,.81,10.56,0a7.07,7.07,0,0,1,2.09.27,10,10,0,0,0,1.81.14c1.92-.11,3.83-.33,5.75-.4C82.58,99,83,98.64,83,95.65c0-4.68,0-9.36,0-14.05A22.09,22.09,0,0,0,83,79.16a2,2,0,0,0-2.17-2.08H48.13Z"/><path class="cls-1" d="M47.7,124.79c-1.93,0-3.87.06-5.79,0-2.53-.11-3.41-1-3.48-3.6,0-1.63-.08-3.26,0-4.88.09-2.19,1-3.17,3.21-3.19,4.06,0,8.13,0,12.19.12,1.81,0,2.55.46,2.75,2.19a37.67,37.67,0,0,1,.14,7.28,2.35,2.35,0,0,1-2.62,2.06c-2.13,0-4.26,0-6.39,0Zm-5.83-8.4c-.09,1.57-.17,3-.24,4.35,2.6.64,10,.47,11.78-.15v-4.2Z"/><path class="cls-1" d="M47.74,132c2,0,4.06-.06,6.08,0s2.94,1,3,3a49.9,49.9,0,0,1,0,5.47c-.12,2-1.11,3.06-3.05,3.12q-6.07.18-12.16,0c-2.1-.06-3.07-1.16-3.18-3.31a49.91,49.91,0,0,1,0-5.47,2.65,2.65,0,0,1,2.9-2.81c2.12-.1,4.26,0,6.38,0Zm5.82,3.54c-3.73-.61-9.77-.48-11.72.16V140c4,0,7.82.08,11.72,0Z"/><path class="cls-1" d="M22.68,124.78c-1.83,0-3.66,0-5.48,0-2.7-.09-3.69-1-3.79-3.67a44.12,44.12,0,0,1,0-4.88c.14-2,1.13-3,3.11-3.06,3.95-.11,7.91-.13,11.87,0A3.49,3.49,0,0,1,32,116.89c0,1.62,0,3.25-.16,4.87-.15,2.06-1,2.91-3.07,3S24.71,124.77,22.68,124.78Zm5.84-8.29H16.83v4.25c3.24.65,9.65.53,11.69-.19Z"/><path class="cls-1" d="M72.69,132c2,0,4.08-.06,6.11,0,1.86.07,2.86.92,3,2.76a40,40,0,0,1,0,5.79,3.12,3.12,0,0,1-3.21,3.05c-4,.1-7.94.12-11.91,0-2.38-.07-3.21-1.07-3.29-3.48,0-1.52,0-3,0-4.58.08-2.67.85-3.48,3.45-3.56,1.93-.05,3.87,0,5.8,0Zm5.81,7.88v-4.52H66.88v4.52Z"/><path class="cls-1" d="M22.71,132c2,0,4.08-.07,6.11,0s2.92,1,3,3c.08,1.73.07,3.47,0,5.19-.09,2.36-1,3.3-3.4,3.39-2.94.11-5.9,0-8.85,0-1,0-2,.06-3.05,0a3.23,3.23,0,0,1-3.12-3.16,40.23,40.23,0,0,1,0-5.49c.15-2,1.11-2.89,3.15-3S20.68,132,22.71,132Zm-5.94,7.81H28.41v-4.47H16.77Z"/><path class="cls-1" d="M22.71,150.93c2,0,4.08-.06,6.11,0s2.93.94,3,3c.08,1.82,0,3.66,0,5.49a2.51,2.51,0,0,1-2.24,2.79,13.88,13.88,0,0,1-2.1.33c-3.25,0-6.51.07-9.77,0s-4.31-1.2-4.35-4.48c0-1.43-.07-2.86,0-4.28A2.69,2.69,0,0,1,16.3,151c2.14-.1,4.28,0,6.41,0Zm5.82,3.39H16.78v4.43H28.53Z"/><path class="cls-1" d="M72.19,113.19c2,0,4.06-.1,6.08,0,2.66.16,3.44.94,3.61,3.54a44,44,0,0,1,0,4.87,3.06,3.06,0,0,1-3.32,3.15c-3.61,0-7.22,0-10.83,0a10.07,10.07,0,0,1-2.37-.36,2.29,2.29,0,0,1-1.92-2.4c0-2-.1-4.07,0-6.1s.94-2.63,3-2.7,3.86,0,5.79,0Zm6.23,3.24H66.83V121c1,.06,1.92.15,2.87.16,2.12,0,4.24-.07,6.36,0,2.47.1,2.64,0,2.62-2.31C78.68,118.17,78.54,117.49,78.42,116.43Z"/><path class="cls-1" d="M47.72,150.93c2,0,4.07-.06,6.09,0s2.95,1,3,3a52.72,52.72,0,0,1,0,5.48c-.11,1.83-.74,2.47-2.54,2.92a7.34,7.34,0,0,1-1.8.23c-3.26,0-6.51.08-9.76,0s-4.28-1.23-4.32-4.5c0-1.42-.06-2.85,0-4.27A2.67,2.67,0,0,1,41.32,151c2.13-.1,4.27,0,6.4,0Zm5.85,3.54c-3.67-.61-9.76-.49-11.73.16v4.31c4,0,7.82.11,11.73-.09Z"/><path class="cls-1" d="M72.92,150.93c1.93,0,3.86-.06,5.79,0,2.22.09,3.08,1,3.17,3.2.07,1.63.06,3.26,0,4.88-.08,1.95-.92,3.27-2.83,3.35-4.34.19-8.71.15-13-.09-1.83-.09-2.42-1-2.53-2.87a52.91,52.91,0,0,1,0-5.49c.1-2,1-2.9,3.06-3S70.78,150.93,72.92,150.93Zm-6.19,7.84H78.45v-4.65c-4,0-7.84-.13-11.72.11Z"/><path class="cls-1" d="M48.25,21.47H28.12a7.11,7.11,0,0,1-2.41-.15,2.14,2.14,0,0,1-1.23-1.47,2.07,2.07,0,0,1,1-1.57,5.43,5.43,0,0,1,2.36-.37q20.59,0,41.17,0a4.92,4.92,0,0,1,2.36.36,2.62,2.62,0,0,1,1.12,1.86c0,.41-.85,1.07-1.43,1.25a8.46,8.46,0,0,1-2.42.1Z"/><path class="cls-1" d="M48.16,37H26.78c-.3,0-.69.17-.89,0-.54-.37-1.25-.77-1.44-1.31a1.42,1.42,0,0,1,1.15-1.85A10.92,10.92,0,0,1,28,33.69H69a9,9,0,0,1,2.7.26,1.76,1.76,0,0,1,.93,1.35,1.79,1.79,0,0,1-1,1.35,7.32,7.32,0,0,1-2.4.23H48.16Z"/><path class="cls-1" d="M39.66,52.67H28.41c-.51,0-1,0-1.52,0-1.71-.08-2.48-.58-2.48-1.59s.75-1.57,2.49-1.57q13.08,0,26.16,0a2.71,2.71,0,0,1,1.47.22,2.11,2.11,0,0,1,.95,1.36,1.76,1.76,0,0,1-1,1.34,6.94,6.94,0,0,1-2.38.24C48,52.68,43.82,52.67,39.66,52.67Z"/><path class="cls-1" d="M67.08,52.65c-1.11,0-2.22,0-3.33,0s-1.87-.41-1.92-1.5.73-1.62,1.77-1.63q3.63-.06,7.26,0c1,0,1.82.51,1.77,1.63s-.91,1.48-1.92,1.5C69.5,52.67,68.29,52.65,67.08,52.65Z"/><path class="cls-1" d="M50.47,203.28c3.1,5.68,2.81,10.7-1,13.93-4.06,3.44-8.46,3.84-12.6.94-4.92-3.45-5.57-8.05-2.4-14.8-3.25-5.9-2.71-10.59,1.64-14.24a10.11,10.11,0,0,1,12.91.17C53.21,193,53.7,197.73,50.47,203.28Zm-7.94,13.19c3.92.22,6.68-2.82,6.76-6.69a6.64,6.64,0,0,0-6.8-6.74,6.82,6.82,0,0,0-6.79,6.85A6.35,6.35,0,0,0,42.53,216.47Zm5-15.95c2.13-3.23,1.71-6.48-1.11-8.76a6.4,6.4,0,0,0-8.55.55c-2.4,2.24-2.54,5.52-.36,8.51C40.8,198.62,44.24,199.37,47.56,200.52Z"/><path class="cls-1" d="M66,193.12c0,1.32,0,2.64,0,4a1.49,1.49,0,0,1-1.54,1.56,1.47,1.47,0,0,1-1.54-1.56c0-2.85-.06-5.7.08-8.53,0-.5.78-1.22,1.32-1.36a1.33,1.33,0,0,1,1.64,1.36c.1,1.52,0,3,0,4.57Z"/><path class="cls-1" d="M66,208.42c0,1.12.06,2.24,0,3.35a1.49,1.49,0,0,1-1.56,1.55,1.46,1.46,0,0,1-1.51-1.58c-.06-2.44,0-4.88,0-7.32a1.49,1.49,0,0,1,1.39-1.7c1.11-.06,1.65.74,1.71,1.73C66,205.77,66,207.1,66,208.42Z"/><path class="cls-1" d="M50.8,91.24l1.06-2.76-2.37-2.17.21-.48,3,.23,1-3.26c1.76.59.83,2.26,1.74,3.22l3-.17c0,1.84-1.76,1.35-2.52,2.46l1.35,3.15c-1.9.62-2-1.61-3.33-1.78l-2.65,2Z"/><path class="cls-1" d="M40.13,86.05l3.16-.23c-.29,1.69-1.77,1.62-2.61,2.64l1.16,3-.39.25a10.46,10.46,0,0,1-1.35-1,9.49,9.49,0,0,1-.91-1.42l-3.08,2.45-.51-.26.92-3-2.29-2,.17-.5,3.08.16.93-3.28C40.13,83.4,39.34,85,40.13,86.05Z"/><path class="cls-1" d="M69.72,82.91c.3,1,.59,2,.92,3.19l3-.36c.19,2-1.86,1.42-2.45,2.65l1.18,3.06-.46.38-2.6-2.23L66,92.18l1.13-3.75-2.79-2.59c1.14,0,1.6,0,2,0s1,.22,1.6.37L69,82.85Z"/><path class="cls-1" d="M18.4,85.74l3.75.33,1-3.26.64,0,1.06,3.31,3-.36c.21,2-1.88,1.4-2.45,2.68l1.21,3-.39.3-2.7-2.11-2.78,2.1-.4-.33c.3-.91.6-1.81,1-2.9Z"/></svg>