<svg id="Layer_1" data-name="Layer 1" xmlns="http://www.w3.org/2000/svg" viewBox="0 0 152.76 146.21"><defs><style>.cls-1{fill:#01f1c1;}.cls-2{fill:#fff;}</style></defs><title>NuagePro</title><path class="cls-1" d="M11.43,145.71a4.36,4.36,0,0,1-3.12-1.22,4.46,4.46,0,0,1-1.23-3.2c0-10.44,0-21.06,0-31.32v-8.35c0-.16,0-.3,0-.41,0-.3,0-.5-.12-.65s-.37-.17-.85-.18H5.67l-.59,0H4.51a3.69,3.69,0,0,1-1.73-.34A3.79,3.79,0,0,1,.5,96.5V54.68a18.14,18.14,0,0,1,.7-6.12c2.25-6.3,6.67-10,13.13-11a20.51,20.51,0,0,1,3-.19c.44,0,.89,0,1.33,0a3.85,3.85,0,0,1,3.57,2.47l6.23,13.61c0,.08.2.41.2.41a.25.25,0,0,0,.22.14h0a.26.26,0,0,0,.21-.12l.12-.2a3.58,3.58,0,0,0,.18-.32l1.51-3.29C32.46,46.76,34,43.4,35.54,40a4.09,4.09,0,0,1,4-2.62l1.1,0a18.46,18.46,0,0,1,4.68.49,15.69,15.69,0,0,1,8.14,5,.58.58,0,0,0,.13.11.31.31,0,0,0,.19.06.22.22,0,0,0,.16,0c12-11.37,25.56-17.13,40.21-17.13A64.11,64.11,0,0,1,110,28c13.61,3.51,24.6,11.46,32.66,23.63a57.37,57.37,0,0,1-29,85.82A56.31,56.31,0,0,1,95,140.57c-1.28,0-2.59,0-3.89-.12a56.64,56.64,0,0,1-21.91-5.89,57.42,57.42,0,0,1-17.88-14,.25.25,0,0,0-.19-.09h-.07l-.17,0a.25.25,0,0,0-.18.24v6.46c0,4.8,0,9.59,0,14.39a4,4,0,0,1-1.17,2.88,4.19,4.19,0,0,1-2.94,1.25q-9,0-17.87-.05-8.65,0-17.3.05ZM28.91,111a4.22,4.22,0,0,1,1.3.22c1.79.61,2.73,2.09,2.73,4.26v8.46q0,6.48,0,12.94a.77.77,0,0,0,.9.92l3.91,0h4c.94,0,1-.11,1-1.06v-36a.26.26,0,0,0-.24-.25h-.21l-.31,0H16.16c-1,0-1.07.11-1.07,1.05V125q0,5.92,0,11.84a1,1,0,0,0,.22.74,1,1,0,0,0,.71.22c1.27,0,2.51,0,3.75,0H23.9c.46,0,.72,0,.89-.19s.15-.42.15-.87V114.92A4,4,0,0,1,28.91,111ZM51,100.38a.25.25,0,0,0-.25.25v1.12c0,1.14,0,2.23,0,3.32a1.48,1.48,0,0,0,.2.59,50.1,50.1,0,0,0,10.59,14,49.07,49.07,0,0,0,10.89,7.6,47.79,47.79,0,0,0,16.24,5c2.3.27,4.06.41,5.72.47h.55c.91,0,1.84-.07,2.73-.14l.88-.07a48.63,48.63,0,0,0,15.65-3.8,49.71,49.71,0,0,0,26-25.84,53,53,0,0,0,3.27-10.58,26.4,26.4,0,0,0,.37-2.63l.1-.89a46.36,46.36,0,0,0,.05-10.6,49,49,0,0,0-7.39-21.24,49.52,49.52,0,0,0-15.37-15.36,48.76,48.76,0,0,0-18.81-7.07,51,51,0,0,0-7.58-.58,50.45,50.45,0,0,0-8.3.7,48.8,48.8,0,0,0-14.37,4.85A50.49,50.49,0,0,0,57.8,50.72a1.68,1.68,0,0,0-.48,1.48,9.25,9.25,0,0,1,.07,1.4V80.8c0,5.12,0,10.24,0,15.36a4.31,4.31,0,0,1-1.22,3.12,3.8,3.8,0,0,1-2.71,1.12h-.31c-.26,0-.52,0-.79,0Zm-35.6-54.9-.33,0a8.13,8.13,0,0,0-6.63,8.05V76.33q0,7.59,0,15.17a1,1,0,0,0,.22.75,1,1,0,0,0,.72.22q15.41,0,30.81,0h8.26a1.14,1.14,0,0,0,.86-.23,1.15,1.15,0,0,0,.21-.89l0-.84c0-.68,0-1.36,0-2V53.54a8.08,8.08,0,0,0-6.72-8l-.28,0a.9.9,0,0,0-.86.62c-.77,1.72-1.56,3.43-2.34,5.14l-2.81,6.14c-1.28,2.79-2.55,5.58-3.84,8.37a3.75,3.75,0,0,1-3.63,2.34,3.76,3.76,0,0,1-3.7-2.41q-4.48-9.77-8.95-19.54A.92.92,0,0,0,15.39,45.48Z"/><path class="cls-2" d="M94.11,26.12A64,64,0,0,1,110,28.22c13.56,3.5,24.5,11.41,32.52,23.53a57.13,57.13,0,0,1-28.9,85.45A56.39,56.39,0,0,1,95,140.32c-1.28,0-2.58,0-3.88-.12a56.18,56.18,0,0,1-21.81-5.87,56.89,56.89,0,0,1-17.8-14,.52.52,0,0,0-.38-.17l-.15,0-.1,0-.06,0a.51.51,0,0,0-.36.48v6.49c0,4.71,0,9.57,0,14.36a3.74,3.74,0,0,1-1.09,2.71,4,4,0,0,1-2.79,1.17c-6.33,0-12.16-.05-17.83-.05-6,0-11.81,0-17.36.05a4.06,4.06,0,0,1-2.94-1.15,4.22,4.22,0,0,1-1.16-3c0-10.45,0-21.08,0-31.35v-8.32c0-.16,0-.29,0-.4a1,1,0,0,0-.19-.83c-.23-.24-.51-.25-1-.26H5.67l-.59,0H4.51a3.34,3.34,0,0,1-1.61-.32A3.55,3.55,0,0,1,.75,96.5V54.68a17.52,17.52,0,0,1,.69-6C3.65,42.44,8,38.8,14.37,37.85a19.73,19.73,0,0,1,3-.2q.66,0,1.32,0A3.61,3.61,0,0,1,22,40l6.23,13.61.12.24.09.18a.51.51,0,0,0,.43.27h0a.5.5,0,0,0,.43-.25l.11-.18c.08-.13.14-.24.2-.36l1.48-3.22c1.55-3.39,3.11-6.77,4.65-10.17a3.87,3.87,0,0,1,3.74-2.47l1.09,0a18.34,18.34,0,0,1,4.62.48,15.44,15.44,0,0,1,8,4.92.64.64,0,0,0,.19.16.47.47,0,0,0,.31.12.49.49,0,0,0,.34-.14c12-11.32,25.46-17.06,40-17.06m-40.64,74h-.29c-.27,0-.53,0-.81,0H51a.5.5,0,0,0-.5.5v1.09c0,1.15,0,2.25,0,3.35a1.48,1.48,0,0,0,.22.7l0,.07a50.09,50.09,0,0,0,10.6,14,49.27,49.27,0,0,0,10.94,7.63,48.32,48.32,0,0,0,16.33,5c2.31.27,4.08.41,5.75.47h.55c.92,0,1.86-.07,2.76-.15l.87-.06a49.13,49.13,0,0,0,15.73-3.82,49.94,49.94,0,0,0,26.13-26,52.63,52.63,0,0,0,3.29-10.63c.18-.88.28-1.77.38-2.64,0-.3.06-.6.1-.89a47,47,0,0,0,.05-10.67,49.73,49.73,0,0,0-41.78-43.88,49.42,49.42,0,0,0-16,.12A48.87,48.87,0,0,0,72.06,39.2,50.38,50.38,0,0,0,57.62,50.56a1.88,1.88,0,0,0-.55,1.69,8.28,8.28,0,0,1,.07,1.34V81c0,5,0,10.09,0,15.13A4.08,4.08,0,0,1,56,99.1a3.56,3.56,0,0,1-2.54,1.05M28.92,68.34v-.5a3.54,3.54,0,0,1-3.47-2.3Q21,55.79,16.52,46a1.19,1.19,0,0,0-1.13-.81,1.73,1.73,0,0,0-.37,0,8.37,8.37,0,0,0-6.84,8.29V76.3c0,5.07,0,10.13,0,15.2a1.27,1.27,0,0,0,.29.92,1.23,1.23,0,0,0,.9.3q15.43,0,30.87,0h8.2a1.33,1.33,0,0,0,1-.31,1.36,1.36,0,0,0,.27-1.06l0-.84c0-.67,0-1.37,0-2V53.54a8.31,8.31,0,0,0-6.93-8.28l-.32,0a1.13,1.13,0,0,0-1.08.77Q40.19,48.55,39,51.1l-1,2.19L36.22,57.2q-1.94,4.21-3.88,8.45a3.48,3.48,0,0,1-3.4,2.19l0,.5M16,138h0c1.24,0,2.49,0,3.73,0H24c.43,0,.77,0,1-.28s.22-.54.22-1V114.92a3.72,3.72,0,0,1,3.72-3.71,3.58,3.58,0,0,1,1.21.21c1.69.57,2.57,2,2.57,4,0,2.86,0,5.73,0,8.59q0,6.41,0,12.81A1,1,0,0,0,33.85,138h0l3.91,0H41.7c1.08,0,1.3-.22,1.3-1.31v-36a.49.49,0,0,0-.47-.49l-.21,0-.33,0H16.12c-.46,0-.79,0-1,.26s-.24.56-.24,1V125c0,3.93,0,7.87,0,11.8a1.27,1.27,0,0,0,.29.92A1.24,1.24,0,0,0,16,138M94.11,25.62c-15,0-28.42,5.9-40.38,17.2l-.12-.1a15.79,15.79,0,0,0-8.27-5.08,18.46,18.46,0,0,0-4.74-.5l-1.1,0a4.35,4.35,0,0,0-4.19,2.77c-2,4.47-4.08,8.92-6.13,13.39-.07.14-.16.28-.28.49l-.21-.4Q25.59,46.6,22.46,39.8a4.1,4.1,0,0,0-3.78-2.62l-1.34,0a20.65,20.65,0,0,0-3.05.2C7.62,38.35,3.22,42.15,1,48.48A18.83,18.83,0,0,0,.25,55V96.5a4,4,0,0,0,2.42,3.78,3.85,3.85,0,0,0,1.84.37c.39,0,.78,0,1.16,0h.21c1.19,0,1-.07,1,1,0,13.22,0,26.44,0,39.66a4.45,4.45,0,0,0,4.6,4.68h0q8.65-.06,17.32-.05,8.91,0,17.82.05h0A4.37,4.37,0,0,0,51,141.58c0-6.7,0-13.4,0-20.1v-.75l.17,0a57.17,57.17,0,0,0,18,14.1,56.48,56.48,0,0,0,22,5.92c1.31.08,2.61.12,3.91.12a56.47,56.47,0,0,0,18.74-3.15A57.61,57.61,0,0,0,142.9,51.48C135,39.5,124,31.33,110.1,27.74a64,64,0,0,0-16-2.12Zm-40.64,75a4.26,4.26,0,0,0,4.18-4.49c0-7.08,0-14.15,0-21.23V53.76a9.53,9.53,0,0,0-.08-1.6A1.42,1.42,0,0,1,58,50.89a49.93,49.93,0,0,1,14.3-11.25,48.34,48.34,0,0,1,14.29-4.82,49.19,49.19,0,0,1,15.8-.12,48.39,48.39,0,0,1,18.71,7A49,49,0,0,1,136.38,57a48.54,48.54,0,0,1,7.36,21.12,46,46,0,0,1-.05,10.56c-.14,1.16-.23,2.34-.47,3.49A52.58,52.58,0,0,1,140,102.72a49.51,49.51,0,0,1-25.88,25.71,48.14,48.14,0,0,1-15.57,3.78c-1.19.08-2.39.21-3.59.21h-.54c-1.9-.06-3.81-.25-5.7-.47a47.34,47.34,0,0,1-16.16-5,48.27,48.27,0,0,1-10.83-7.55,49.46,49.46,0,0,1-10.5-13.83,1.27,1.27,0,0,1-.2-.55c0-1.44,0-2.88,0-4.43h1.38c.26,0,.52,0,.77,0ZM28.92,68.34h0a4,4,0,0,0,3.86-2.48L38.46,53.5c1.11-2.43,2.23-4.86,3.33-7.29.15-.34.32-.48.63-.48l.24,0a7.83,7.83,0,0,1,6.51,7.79v34.9c0,1,0,1.93.08,2.9,0,.73-.1.86-.82.86q-19.53,0-39.07,0h0c-.57,0-.69-.2-.69-.72,0-6.38,0-12.76,0-19.15V53.56a7.86,7.86,0,0,1,6.43-7.8l.28,0c.31,0,.51.14.68.51Q20.53,56,25,65.78a4,4,0,0,0,3.91,2.56ZM16,137.51c-.53,0-.68-.17-.68-.71,0-5.07,0-10.14,0-15.22V101.43c0-.78,0-.8.78-.8H42l.51,0v2.08q0,17,0,34c0,.81,0,.81-.8.81H37.76l-3.91,0h0c-.49,0-.65-.15-.65-.67,0-7.13,0-14.27,0-21.4,0-2.26-1-3.85-2.9-4.49a4.27,4.27,0,0,0-1.38-.24,4.21,4.21,0,0,0-4.22,4.21v21.76c0,.8,0,.82-.73.82H19.77c-1.25,0-2.49,0-3.74,0Z"/><path class="cls-1" d="M29.42,37.66h-.76A18.54,18.54,0,0,1,10.33,18.34,18.72,18.72,0,0,1,28.93.5h.35A18.5,18.5,0,0,1,47.42,17.35a18.45,18.45,0,0,1-18,20.31ZM28.9,8.46A10.67,10.67,0,0,0,18.3,19.08a10.42,10.42,0,0,0,3.07,7.45A10.61,10.61,0,0,0,39.54,19,10.76,10.76,0,0,0,29,8.46Z"/><path class="cls-2" d="M28.93.25v.5h.34a18.39,18.39,0,0,1,13.17,30.8,18.18,18.18,0,0,1-13,5.86h-.76a18.3,18.3,0,0,1-18.08-19A18.47,18.47,0,0,1,28.93.75V.25m0,29.69A10.89,10.89,0,0,0,39.79,19,11,11,0,0,0,29,8.21H28.9A10.92,10.92,0,0,0,18.05,19.08,10.65,10.65,0,0,0,21.2,26.7a10.8,10.8,0,0,0,7.72,3.24h0m0-29.69a18.83,18.83,0,0,0-.27,37.65h.76A18.84,18.84,0,0,0,29.28.25Zm0,29.19h0a10.37,10.37,0,0,1,0-20.73H29a10.37,10.37,0,0,1,0,20.73Z"/><path class="cls-1" d="M107.61,87.23l-12.8,0a3.93,3.93,0,0,1-3.9-3.75c0-.23,0-.47,0-.7V54q0-4.26,0-8.52a3.93,3.93,0,0,1,3.19-4,3.8,3.8,0,0,1,.82-.08,3.91,3.91,0,0,1,4,3.95q0,12,0,24V79a.25.25,0,0,0,.25.25h17.1a3.92,3.92,0,0,1,4.06,3.55,3.86,3.86,0,0,1-1,3.07,3.81,3.81,0,0,1-2.87,1.35Z"/><path class="cls-2" d="M94.91,41.63h0a3.66,3.66,0,0,1,3.71,3.7q0,12,0,24.06V79a.5.5,0,0,0,.5.5h17.1A3.67,3.67,0,0,1,120,82.83a3.64,3.64,0,0,1-.9,2.88A3.56,3.56,0,0,1,116.46,87h-8.83L94.82,87a3.64,3.64,0,0,1-3.66-3.51c0-.23,0-.46,0-.69V54.08q0-4.29,0-8.58a3.7,3.7,0,0,1,3-3.8,4.08,4.08,0,0,1,.77-.07m0-.5a5.21,5.21,0,0,0-.87.08,4.18,4.18,0,0,0-3.39,4.29c0,4,0,8,0,11.93V82.58c0,.3,0,.6,0,.9a4.16,4.16,0,0,0,4.15,4l12.82,0h8.83a4.24,4.24,0,0,0-.23-8.47H99.13v-.73q0-16.47,0-32.94a4.19,4.19,0,0,0-4.21-4.2Z"/></svg>