<?xml version="1.0" encoding="UTF-8"?>
<svg xmlns="http://www.w3.org/2000/svg" xmlns:xlink="http://www.w3.org/1999/xlink" width="70px" height="90px" viewBox="0 0 70 89" version="1.1">
<g id="surface1">
<path style=" stroke:none;fill-rule:nonzero;fill:rgb(0.392157%,94.509804%,75.686275%);fill-opacity:1;" d="M 66.222656 56.5625 L 66.222656 77.351562 C 66.246094 77.792969 66.246094 78.234375 66.222656 78.675781 C 66.183594 79.648438 66.0625 80.617188 65.851562 81.570312 C 65.507812 82.882812 64.882812 84.105469 64.023438 85.160156 C 63.257812 86.09375 62.34375 86.890625 61.316406 87.527344 C 60.625 87.910156 59.90625 88.230469 59.164062 88.488281 C 57.769531 89.035156 56.277344 88.996094 54.851562 88.996094 L 24.675781 88.996094 C 19.890625 88.996094 15.105469 88.996094 10.316406 88.996094 C 9.554688 89.007812 8.792969 88.929688 8.050781 88.769531 C 6.898438 88.507812 5.800781 88.042969 4.8125 87.402344 C 3.839844 86.789062 2.972656 86.027344 2.242188 85.144531 C 1.582031 84.3125 1.066406 83.375 0.710938 82.375 C 0.226562 80.871094 0.015625 79.292969 0.09375 77.710938 C 0.09375 67.921875 0.09375 58.121094 0.09375 48.308594 C 0.09375 38.207031 0.09375 28.109375 0.09375 18.015625 C 0.132812 14.976562 1.597656 12.125 4.054688 10.3125 C 5.070312 9.476562 6.265625 8.886719 7.554688 8.59375 C 8.269531 8.40625 9 8.285156 9.742188 8.234375 C 14.15625 8.164062 18.574219 8.140625 22.988281 8.109375 C 23.21875 8.109375 23.40625 8.109375 23.40625 8.429688 C 23.40625 9.894531 23.40625 11.363281 23.40625 12.867188 C 23.230469 12.867188 23.085938 12.867188 22.945312 12.867188 C 18.796875 12.867188 14.660156 12.867188 10.515625 12.867188 C 8.71875 12.820312 7.011719 13.632812 5.925781 15.050781 C 5.21875 16 4.867188 17.160156 4.933594 18.335938 C 4.933594 26.382812 4.933594 34.433594 4.933594 42.484375 C 4.933594 52.925781 4.933594 63.363281 4.933594 73.804688 C 4.933594 75.777344 4.933594 77.753906 4.996094 79.722656 C 5.070312 80.882812 5.617188 81.960938 6.507812 82.707031 C 7.621094 83.769531 9.121094 84.335938 10.664062 84.273438 C 16.53125 84.273438 22.394531 84.273438 28.261719 84.273438 C 37.460938 84.273438 46.660156 84.273438 55.859375 84.273438 C 56.984375 84.285156 58.089844 83.960938 59.03125 83.34375 C 59.941406 82.769531 60.640625 81.921875 61.027344 80.921875 C 61.265625 80.269531 61.378906 79.582031 61.367188 78.894531 L 61.367188 56.546875 Z M 66.222656 56.5625 "/>
<path style=" stroke:none;fill-rule:nonzero;fill:rgb(0.392157%,94.509804%,75.686275%);fill-opacity:1;" d="M 58.433594 24.398438 C 58.191406 25.214844 57.949219 26.011719 57.714844 26.808594 L 57.472656 27.601562 C 57.066406 28.867188 56.65625 30.132812 56.269531 31.398438 C 55.921875 32.542969 55.605469 33.691406 55.257812 34.835938 C 54.9375 35.890625 54.589844 36.945312 54.21875 38.097656 L 68.691406 37.558594 C 68.648438 38.367188 68.660156 39.105469 68.542969 39.851562 C 68.410156 40.769531 68.199219 41.675781 67.90625 42.558594 C 67.59375 43.445312 67.183594 44.296875 66.683594 45.09375 C 66.023438 46.210938 65.1875 47.21875 64.207031 48.078125 C 63.347656 48.777344 62.382812 49.355469 61.464844 49.980469 C 60.523438 50.566406 59.488281 50.996094 58.40625 51.246094 C 56.234375 51.824219 53.957031 51.894531 51.75 51.457031 C 50.402344 51.210938 49.109375 50.730469 47.929688 50.039062 C 46.753906 49.390625 45.675781 48.585938 44.722656 47.644531 C 44.191406 47.089844 43.691406 46.5 43.234375 45.882812 C 42.523438 44.925781 41.953125 43.871094 41.542969 42.75 C 41.300781 42.027344 41.09375 41.292969 40.929688 40.550781 C 40.550781 39.023438 40.496094 37.4375 40.769531 35.890625 C 40.976562 34.757812 41.300781 33.648438 41.738281 32.585938 C 42.117188 31.644531 42.589844 30.742188 43.148438 29.890625 C 43.585938 29.246094 44.09375 28.648438 44.660156 28.109375 C 45.25 27.535156 45.871094 26.992188 46.519531 26.484375 C 46.9375 26.164062 47.382812 25.882812 47.847656 25.640625 C 48.976562 25.046875 50.175781 24.589844 51.414062 24.28125 C 53.113281 23.863281 54.875 23.765625 56.609375 23.996094 C 57.199219 24.066406 57.78125 24.253906 58.433594 24.398438 Z M 58.433594 24.398438 "/>
<path style=" stroke:none;fill-rule:nonzero;fill:rgb(0.392157%,94.509804%,75.686275%);fill-opacity:1;" d="M 41.78125 12.953125 L 24.796875 12.953125 C 24.804688 12.136719 24.867188 11.320312 24.976562 10.507812 C 25.179688 9.21875 25.488281 7.953125 25.90625 6.714844 C 26.34375 5.550781 26.914062 4.4375 27.609375 3.398438 C 28.214844 2.488281 29 1.707031 29.917969 1.105469 C 31.019531 0.300781 32.375 -0.0898438 33.738281 0 C 34.984375 0.121094 36.160156 0.609375 37.121094 1.402344 C 37.925781 2.078125 38.628906 2.859375 39.210938 3.730469 C 39.550781 4.199219 39.832031 4.703125 40.054688 5.238281 C 40.488281 6.296875 40.878906 7.378906 41.207031 8.46875 C 41.332031 8.941406 41.410156 9.425781 41.449219 9.914062 C 41.554688 10.640625 41.660156 11.367188 41.746094 12.09375 C 41.773438 12.382812 41.785156 12.667969 41.78125 12.953125 Z M 33.292969 8.300781 C 34.402344 8.277344 35.304688 7.402344 35.347656 6.300781 C 35.367188 5.75 35.15625 5.21875 34.761719 4.828125 C 34.371094 4.4375 33.832031 4.222656 33.277344 4.238281 C 32.730469 4.234375 32.207031 4.453125 31.824219 4.84375 C 31.445312 5.234375 31.242188 5.761719 31.269531 6.300781 C 31.296875 7.398438 32.1875 8.28125 33.292969 8.300781 Z M 33.292969 8.300781 "/>
<path style=" stroke:none;fill-rule:nonzero;fill:rgb(0.392157%,94.509804%,75.686275%);fill-opacity:1;" d="M 48.210938 20.410156 L 18.226562 20.410156 C 18.765625 19.671875 19.203125 18.984375 19.714844 18.363281 C 20.273438 17.671875 20.882812 17.023438 21.539062 16.425781 C 22.148438 15.855469 22.890625 15.492188 23.515625 14.964844 C 23.925781 14.691406 24.425781 14.578125 24.917969 14.65625 C 30.691406 14.65625 36.464844 14.65625 42.28125 14.65625 C 42.710938 14.714844 43.109375 14.898438 43.4375 15.179688 C 44.109375 15.664062 44.753906 16.1875 45.363281 16.746094 C 45.898438 17.242188 46.394531 17.773438 46.855469 18.335938 C 47.300781 18.875 47.675781 19.480469 48.074219 20.054688 C 48.132812 20.164062 48.179688 20.285156 48.210938 20.410156 Z M 48.210938 20.410156 "/>
<path style=" stroke:none;fill-rule:nonzero;fill:rgb(0.392157%,94.509804%,75.686275%);fill-opacity:1;" d="M 66.40625 18.242188 L 61.5 18.242188 C 61.5 18.089844 61.472656 17.957031 61.472656 17.832031 C 61.457031 16.417969 60.808594 15.085938 59.699219 14.199219 C 58.671875 13.320312 57.359375 12.847656 56.003906 12.867188 L 43.03125 12.867188 L 43.03125 11.242188 C 43.03125 10.320312 43.03125 9.398438 43.03125 8.480469 C 43.03125 8.1875 43.113281 8.085938 43.398438 8.089844 C 43.679688 8.097656 44.054688 8.089844 44.378906 8.089844 C 48.117188 8.089844 51.882812 8.089844 55.601562 8.089844 C 56.542969 8.097656 57.480469 8.199219 58.398438 8.398438 C 60.125 8.765625 61.722656 9.582031 63.019531 10.773438 C 63.9375 11.578125 64.6875 12.550781 65.234375 13.636719 C 65.621094 14.398438 65.898438 15.207031 66.054688 16.042969 C 66.175781 16.742188 66.285156 17.464844 66.40625 18.242188 Z M 66.40625 18.242188 "/>
<path style=" stroke:none;fill-rule:nonzero;fill:rgb(0.392157%,94.509804%,75.686275%);fill-opacity:1;" d="M 53.574219 57.972656 L 53.574219 60.734375 L 12.851562 60.734375 L 12.851562 57.957031 Z M 53.574219 57.972656 "/>
<path style=" stroke:none;fill-rule:nonzero;fill:rgb(0.392157%,94.509804%,75.686275%);fill-opacity:1;" d="M 12.835938 75.988281 L 12.835938 73.300781 L 53.5625 73.300781 L 53.5625 75.988281 Z M 12.835938 75.988281 "/>
<path style=" stroke:none;fill-rule:nonzero;fill:rgb(0.392157%,94.509804%,75.686275%);fill-opacity:1;" d="M 12.828125 68.355469 L 12.828125 65.691406 L 53.574219 65.691406 L 53.574219 68.355469 Z M 12.828125 68.355469 "/>
<path style=" stroke:none;fill-rule:nonzero;fill:rgb(0.392157%,94.509804%,75.686275%);fill-opacity:1;" d="M 69.90625 35.191406 L 57.59375 35.671875 C 57.96875 34.480469 58.324219 33.382812 58.675781 32.234375 C 58.832031 31.730469 58.976562 31.226562 59.140625 30.722656 C 59.515625 29.503906 59.90625 28.289062 60.292969 27.066406 C 60.519531 26.324219 60.722656 25.570312 60.933594 24.820312 C 60.96875 24.664062 61.011719 24.503906 61.0625 24.351562 C 61.136719 24.164062 61.261719 24.054688 61.5 24.171875 C 62.332031 24.597656 63.164062 25.003906 64 25.417969 C 64.789062 25.832031 65.488281 26.386719 66.066406 27.0625 C 66.644531 27.714844 67.222656 28.414062 67.746094 29.105469 C 68.445312 30.050781 68.964844 31.113281 69.277344 32.242188 C 69.554688 33.175781 69.6875 34.15625 69.90625 35.191406 Z M 69.90625 35.191406 "/>
<path style=" stroke:none;fill-rule:nonzero;fill:rgb(0.392157%,94.509804%,75.686275%);fill-opacity:1;" d="M 36.417969 42.730469 L 36.417969 45.503906 L 12.851562 45.503906 L 12.851562 42.730469 Z M 36.417969 42.730469 "/>
<path style=" stroke:none;fill-rule:nonzero;fill:rgb(0.392157%,94.509804%,75.686275%);fill-opacity:1;" d="M 12.835938 30.179688 L 12.835938 27.503906 L 36.417969 27.503906 L 36.417969 30.203125 Z M 12.835938 30.179688 "/>
<path style=" stroke:none;fill-rule:nonzero;fill:rgb(0.392157%,94.509804%,75.686275%);fill-opacity:1;" d="M 36.421875 50.371094 L 36.421875 53.121094 L 12.847656 53.121094 L 12.847656 50.371094 Z M 36.421875 50.371094 "/>
<path style=" stroke:none;fill-rule:nonzero;fill:rgb(0.392157%,94.509804%,75.686275%);fill-opacity:1;" d="M 12.792969 37.816406 L 12.792969 35.113281 L 36.417969 35.113281 L 36.417969 37.816406 Z M 12.792969 37.816406 "/>
</g>
</svg>
