<svg id="Layer_1" data-name="Layer 1" xmlns="http://www.w3.org/2000/svg" viewBox="0 0 87.15 99.07"><defs><style>.cls-1{fill:#01f1c1;}</style></defs><title>NuagePro</title><path class="cls-1" d="M4.4,40.83a44.47,44.47,0,0,0,4.53,2.26c0,.08-.09.33-.15.58-.65,2.4-1.38,4.78-1.92,7.2C6.38,53,6,55.19,7.73,57.05c.15.16.28.35.44.56-.32.45-.64.86-.92,1.28-1.83,2.75-3.67,5.5-5.46,8.27-2,3.07-.05,5,2.5,5.62.59.14,1.16.33,1.75.51-.21.74-.37,1.41-.58,2a2.85,2.85,0,0,0,.36,2.81,1.31,1.31,0,0,1,.09,1,3,3,0,0,0,.63,3.22,1.41,1.41,0,0,1,.25,1.71c-1.27,3.5.36,6.6,3.94,7.65a8.52,8.52,0,0,0,1.5.32c2.74.34,5.48.61,8.21,1,1.84.25,2.37.81,2.69,2.64A6.38,6.38,0,0,1,23.24,97a1.76,1.76,0,0,0,.81,1.84,2.12,2.12,0,0,0,2.13-.15,2.16,2.16,0,0,0,1.3-2.39c-.05-.51-.07-1-.15-1.52-.42-2.67-1.84-4.4-4-4.85-.64-.13-1.28-.19-1.93-.26-2.5-.28-5-.46-7.51-.84-2.82-.43-3.69-2.12-2.54-4.69a3,3,0,0,0-.65-3.55c-.49-.49-.7-.87-.27-1.55s.49-1.52-.28-1.9C9,76.56,9,75.83,9.38,74.87c.17-.48.32-1,.47-1.45a2.15,2.15,0,0,0-1.13-2.84,19.3,19.3,0,0,0-2.51-.8l-1.43-.44c.27-.51.44-.92.68-1.29Q8.22,63.76,11,59.47c1.2-1.85,1.15-2.58-.37-4.2a1.75,1.75,0,0,1-.53-1.75c.61-2.65,1.26-5.29,1.77-8,.35-1.84,1.23-2.82,3.18-2.63a2.29,2.29,0,0,0,.5-.09,35,35,0,0,0,10-3.81,12.81,12.81,0,0,1,2.63-1.09c5.44-1.46,9.5,2.29,8.29,7.76-.61,2.78-1.59,5.48-2.37,8.23a10.56,10.56,0,0,0,1,8.38,1.35,1.35,0,0,0,1.78.72,1.78,1.78,0,0,0,.33-1.68c-1.48-2.74-.92-5.35.05-8.08a57.67,57.67,0,0,0,2.25-7.82A8.46,8.46,0,0,0,34,35.65a12.05,12.05,0,0,0-10.16.89c-1.51.78-3,1.6-4.56,2.28a15.63,15.63,0,0,1-10,1.09,7.51,7.51,0,0,1-6.09-6.12C3,32.5,2.36,32,1.22,32.15c-1,.15-1.42,1-1.14,2.22A10.09,10.09,0,0,0,4.4,40.83Z"/><path class="cls-1" d="M6.17,33.44a15.6,15.6,0,0,0,4.49,1.25,4.61,4.61,0,0,1,3.83,2.81c.36.78.86,1.56,1.82,1.25A2.27,2.27,0,0,0,17.86,36a7.32,7.32,0,0,0-5.13-4.85,13.5,13.5,0,0,0-2.82-.4c-2.47,0-5.41-3.39-4.61-5.82l.58,1.12a5.79,5.79,0,0,0,4.76,3.24,12.37,12.37,0,0,0,5.3-.76c2-.64,4-1.46,6-2.23a44.17,44.17,0,0,1,20.78-2.54,25.8,25.8,0,0,1,8,2.16,2.44,2.44,0,0,0,2-.09,2.31,2.31,0,0,0,.61-1.69c0-.84-.74-1.13-1.43-1.39a41.59,41.59,0,0,0-25.11-1.06c-3.72.94-7.29,2.43-10.95,3.58a14.8,14.8,0,0,1-3.89.7,3.5,3.5,0,0,1-3.82-3.53,16.75,16.75,0,0,0,0-2.13,2.4,2.4,0,0,0-1-1.46,1.73,1.73,0,0,0-1.62.26,17.47,17.47,0,0,0-2.67,3.58A7.87,7.87,0,0,0,6.17,33.44Z"/><path class="cls-1" d="M86.2,14.89a8.31,8.31,0,0,0-8.35-3.57A8.56,8.56,0,0,0,71,17.53a7.45,7.45,0,0,0,.94,5.23c-.57,0-1,.11-1.49.13-2.66.1-5.32.18-8,.32a5.59,5.59,0,0,0-2.25.41C54,26.87,47.81,30.19,41.62,33.49a2,2,0,0,0-1.14,2.11c.08,1.14.9,1.57,1.93,1q9.27-4.87,18.53-9.74a4.7,4.7,0,0,1,1.84-.49Q67.37,26.16,72,26a44.8,44.8,0,0,1,5.31,0,9.24,9.24,0,0,0,8-3A6.77,6.77,0,0,0,86.2,14.89Zm-2.57,5.48a5.82,5.82,0,0,1-6.85,1.84,3.59,3.59,0,0,1-1.8-5.1,5.26,5.26,0,0,1,4.42-2.82,5.67,5.67,0,0,1,4.41,2A3.28,3.28,0,0,1,83.63,20.37Z"/><path class="cls-1" d="M65.12,69.2a31,31,0,0,0,4.72-16.58,35.8,35.8,0,0,0-1.73-10.73c-.79-2.45-1.88-4.81-2.91-7.17a1.68,1.68,0,0,0-2-1c-.5.16-.89.94-1.12,1.52-.12.33.17.83.32,1.24.92,2.41,2,4.77,2.75,7.24,1.64,5.57,2.23,11.21.5,16.9-1.21,4-3.56,7.39-5.73,10.9a44.39,44.39,0,0,0-4,7.55c-1.65,4.42-1.09,9,0,13.48A39.49,39.49,0,0,0,57.85,98c.55,1.3,1.68,1.4,2.72.46a1.89,1.89,0,0,0,.37-2.33,37.65,37.65,0,0,1-2.38-9.69,14.45,14.45,0,0,1,1.79-9.25C62,74.54,63.54,71.87,65.12,69.2Z"/><path class="cls-1" d="M60.28,12.1c.11,2.32.17,4.63.27,7,0,.31.13.87.28.89a5.59,5.59,0,0,0,2.26.1c.31-.08.57-.92.59-1.42,0-1.19-.08-2.37-.13-3.63.3.06.5.09.69.14a8.38,8.38,0,0,0,9.89-4c2.26-3.61.54-9.29-3.3-10.67a7.71,7.71,0,0,0-8,1.6A7.91,7.91,0,0,0,60,9.68C60.11,10.48,60.24,11.29,60.28,12.1Zm7.08-9.2c2.36-.43,4.49,1.62,4.49,4.73a5.28,5.28,0,0,1-3.16,4.46c-2.54,1.21-5.17-.51-5.51-3.54A5.45,5.45,0,0,1,67.36,2.9Z"/><path class="cls-1" d="M40.63,54.22a1.58,1.58,0,0,0,.72,2.25,1.74,1.74,0,0,0,2.36-.74,10,10,0,0,1,2-2.41,3.28,3.28,0,0,1,5.45,2.33A15.89,15.89,0,0,1,48.42,66.6a7.36,7.36,0,0,1-1.89,1.84,1.86,1.86,0,0,1-2.83-.55,4.62,4.62,0,0,1-.59-1.59,1.57,1.57,0,0,0-1.87-1.43,1.44,1.44,0,0,0-1.32,1.74c.31,2.27,1.26,4.23,3.43,5.22s4.29.35,6.14-1.66c3.27-3.56,4.66-7.84,4.94-12.66-.09-.76-.14-1.62-.28-2.45-.53-3.1-2.24-5-4.82-5.55C45.77,48.73,42.24,51.06,40.63,54.22Z"/><path class="cls-1" d="M61,29.72c-1-.46-1.65-.3-2.06.58Q55.37,38,51.85,45.8c-.49,1.08.13,1.9,1.46,2.08.41-.33,1-.57,1.21-1,.85-1.62,1.59-3.31,2.39-5,1.64-3.37,3.31-6.72,4.94-10.09C62.34,30.82,62.09,30.24,61,29.72Z"/></svg>