<svg id="Layer_1" data-name="Layer 1" xmlns="http://www.w3.org/2000/svg" viewBox="0 0 85.91 59.07"><defs><style>.cls-1{fill:#01f1c1;}</style></defs><title>NuagePro</title><path class="cls-1" d="M10.05,46.13a1.11,1.11,0,0,1,.7,1.15c0,2.87,0,5.75,0,8.63,0,2.12,1,3.16,3.13,3.16H72.14a2.74,2.74,0,0,0,3-3.07c0-2.93,0-5.87,0-8.8a1,1,0,0,1,.62-1,18.36,18.36,0,0,0,10-14.32c0-.22.1-.43.15-.64V27.86c0-.22-.12-.42-.15-.64A18.36,18.36,0,0,0,75.71,12.86a.86.86,0,0,1-.54-.9c0-3,0-6,0-9a2.71,2.71,0,0,0-2.94-3H13.69a2.72,2.72,0,0,0-2.95,3c0,3,0,5.92,0,8.89a1,1,0,0,1-.62,1A18.29,18.29,0,0,0,.62,24.76c-.25,1-.41,1.95-.62,2.93v3.69c.15.76.29,1.52.47,2.28A18.3,18.3,0,0,0,10.05,46.13ZM14,17a2.77,2.77,0,0,0,2.11-3V5.42H69.8v5c0,1.23,0,2.46,0,3.69a2.7,2.7,0,0,0,2,2.86,13,13,0,0,1,8.49,9.92,13.29,13.29,0,0,1-8,15c-2.11.85-2.46,1.36-2.46,3.63v8.11H16.11c0-3.35,0-6.64,0-9.93a1.09,1.09,0,0,0-.93-1.27,13,13,0,0,1-9.38-9.5A13.26,13.26,0,0,1,14,17Z"/><path class="cls-1" d="M27.54,43.86a2.66,2.66,0,0,0,1.36,4.38,2.75,2.75,0,0,0,2.94-1.15q4.48-5.43,9-10.83,8.67-10.41,17.33-20.83a11.86,11.86,0,0,0,1.07-1.92,3,3,0,0,0-3.11-2.76A3.22,3.22,0,0,0,54,12.14L35.74,34C33,37.28,30.26,40.56,27.54,43.86Z"/><path class="cls-1" d="M34.92,26.85a8.06,8.06,0,1,0-8.07-8A8.07,8.07,0,0,0,34.92,26.85ZM35,16.11a2.69,2.69,0,1,1-2.77,2.64A2.7,2.7,0,0,1,35,16.11Z"/><path class="cls-1" d="M51,32.22a8.06,8.06,0,1,0,8,8.08A8.06,8.06,0,0,0,51,32.22Zm0,10.73a2.68,2.68,0,1,1,2.61-2.7A2.68,2.68,0,0,1,51.08,43Z"/></svg>