<svg id="Layer_1" data-name="Layer 1" xmlns="http://www.w3.org/2000/svg" viewBox="0 0 90.9 83"><defs><style>.cls-1{fill:#01f1c1;}</style></defs><title>NuagePro</title><path class="cls-1" d="M90.75,38a7.9,7.9,0,0,0-7.84-6.39q-14.18,0-28.37,0h-.43c0-.16.08-.28.11-.4a101.66,101.66,0,0,0,2.68-10,17,17,0,0,0,.2-6.11A26.32,26.32,0,0,0,54,6.25a16.18,16.18,0,0,0-3.73-4.66A5.88,5.88,0,0,0,46.5,0c-1.64,0-3.28,0-4.92,0a2.25,2.25,0,0,0-.81.16,2,2,0,0,0-1.24,2q0,7.38,0,14.78a1.47,1.47,0,0,1-.15.65q-4.74,9.52-9.51,19c-.05.09-.1.17-.18.34,0-.19,0-.28,0-.38,0-1,0-1.89,0-2.83a2.36,2.36,0,0,0-.15-.88,1.94,1.94,0,0,0-2-1.27H1.92A2,2,0,0,0,0,33.74c.11,1,.25,2.06.38,3.08C.58,38.4.78,40,1,41.54s.39,3.16.59,4.75l.6,4.77c.19,1.58.39,3.15.59,4.72s.39,3.12.59,4.68.39,3.17.59,4.75.39,3.14.59,4.71l.6,4.78c.19,1.56.39,3.12.58,4.69.09.66.15,1.33.26,2A2,2,0,0,0,8.07,83H27.46a2.15,2.15,0,0,0,1.66-.64,2.07,2.07,0,0,0,.54-1.48V79h2.12c.08,0,.19.11.23.19A5.88,5.88,0,0,0,37.77,83q18.56,0,37.09,0a9.89,9.89,0,0,0,1.8-.17,7.89,7.89,0,0,0,6.13-9.49,8.43,8.43,0,0,0-1.14-2.61,7.9,7.9,0,0,0,5-5.38,7.69,7.69,0,0,0-1.54-7.17,8,8,0,0,0,2-11.86l.3-.2A8,8,0,0,0,90.75,38ZM25.68,79h-16L4.22,35.6H25.68ZM86.6,41.11a3.71,3.71,0,0,1-3.17,2.32c-.81.08-1.64,0-2.46.06a1.84,1.84,0,0,0-1.74,1.14A2,2,0,0,0,81,47.42a4,4,0,0,1,.21,7.9c-.68,0-1.37,0-2,0a2,2,0,1,0-.12,4,4.11,4.11,0,0,1,2.31.73A3.95,3.95,0,0,1,79,67.18c-1.29,0-2.58,0-3.86,0a2,2,0,1,0-.06,3.94A4,4,0,0,1,76,78.94a3.91,3.91,0,0,1-.83.09H37.63a2,2,0,0,1-2.05-2,2,2,0,0,0-2-2c-1.18,0-2.36,0-3.54,0h-.35V41.5h.82a2.06,2.06,0,0,0,2-1.23q5.37-10.74,10.73-21.5a2.46,2.46,0,0,0,.25-1.1c0-4.43,0-8.86,0-13.29V4h.35c.79,0,1.58,0,2.36,0a2,2,0,0,1,1.32.45,9.81,9.81,0,0,1,2.18,2.41,21.23,21.23,0,0,1,3.5,8.64,14.32,14.32,0,0,1-.2,5.22,126,126,0,0,1-3.43,12.23,1.91,1.91,0,0,0,1.29,2.58,3.29,3.29,0,0,0,.83.08H82.83a3.89,3.89,0,0,1,3.38,1.68A3.7,3.7,0,0,1,86.6,41.11Z"/><path class="cls-1" d="M18.75,75.09a3,3,0,1,0-2.93-3A3,3,0,0,0,18.75,75.09Z"/></svg>