<svg id="Layer_1" data-name="Layer 1" xmlns="http://www.w3.org/2000/svg" viewBox="0 0 99.84 79.01"><defs><style>.cls-1{fill:#01f1c1;}</style></defs><title>NuagePro</title><path class="cls-1" d="M53.4,71.35h.9c6.05,0,12.11,0,18.17,0a1.76,1.76,0,0,1,1.44.56A1.62,1.62,0,0,1,74.3,73c0,1.42,0,2.84,0,4.26A1.7,1.7,0,0,1,72.6,79c-2.45,0-4.9,0-7.35,0H22.9a1.54,1.54,0,0,1-1.62-1.63c0-1.43,0-2.85,0-4.27A1.75,1.75,0,0,1,23,71.33c6.06,0,12.12,0,18.18,0H42a8.88,8.88,0,0,0,0-2.92c-.25,0-.51,0-.77,0H23.14a2.27,2.27,0,0,1-1-.18A1.42,1.42,0,0,1,21.4,67c0-.2,0-.41,0-.62V51c-.3,0-.54-.05-.78-.05-3.87,0-7.74,0-11.62,0a5.37,5.37,0,0,1-3-1,13.36,13.36,0,0,1-4.64-5.7A12.66,12.66,0,0,1,.21,40.78,18.25,18.25,0,0,1,.06,36.6a16.82,16.82,0,0,1,.78-3.92A16.06,16.06,0,0,1,6.15,25a15.42,15.42,0,0,1,4.7-2.5,12.59,12.59,0,0,1,1.74-.41.56.56,0,0,0,.5-.59,14.24,14.24,0,0,1,1-4.11,15.81,15.81,0,0,1,4.95-6.71,13.74,13.74,0,0,1,4.52-2.43,13.21,13.21,0,0,1,5.17-.65,17.31,17.31,0,0,1,3,.58c1,.27,1.91.79,2.89,1.13a4.78,4.78,0,0,1,.41-1,13.68,13.68,0,0,1,1.87-2.88c.33-.34.7-.66,1-1s.58-.61.88-.9a3.9,3.9,0,0,1,.74-.48c.7-.42,1.31-1,2-1.37A11.9,11.9,0,0,1,45.77.22,14.23,14.23,0,0,1,49.52.06a14,14,0,0,1,5.6,1.74,15.14,15.14,0,0,1,5.33,5.1c.51.81.88,1.71,1.32,2.57l.21.41c.27-.06.54-.09.79-.17A12.56,12.56,0,0,1,67.07,9,13.48,13.48,0,0,1,71,9.69a13.88,13.88,0,0,1,3.39,1.55,15.22,15.22,0,0,1,4.43,4.29,16.12,16.12,0,0,1,1.67,3.08,16.64,16.64,0,0,1,1,3.79,4,4,0,0,0,.12.46c.46-.06.9-.09,1.34-.17a10.53,10.53,0,0,1,4.11,0l1.86.4A10.62,10.62,0,0,1,92,24.42a14.12,14.12,0,0,1,1.87,1.29,15.59,15.59,0,0,1,3.86,4.64A18.25,18.25,0,0,1,99.46,35a16,16,0,0,1,.27,5.34,11.7,11.7,0,0,1-3.52,7.22,10.24,10.24,0,0,1-4.47,2.61,10.65,10.65,0,0,1-3,.45c-4.49,0-9,0-13.48,0h-.91c0,.33,0,.59,0,.85v14.9c0,.23,0,.45,0,.68a1.33,1.33,0,0,1-1.44,1.4H54.52c-1.05,0-1.12.07-1.12,1.12C53.39,70.09,53.4,70.66,53.4,71.35ZM21.39,48V34.46a5,5,0,0,1,0-.55,1.46,1.46,0,0,1,.72-1.22,2.19,2.19,0,0,1,1.25-.28l26.76,0,8.59,0c4.53,0,9.07,0,13.6,0h.55a1.49,1.49,0,0,1,1.46,1.52V46.8c0,.74,0,.79.68.79,4.7,0,9.39,0,14.09,0a7,7,0,0,0,2.34-.48,8.17,8.17,0,0,0,5.06-5.66,8.85,8.85,0,0,0,.3-4.28c-.21-1-.36-2.11-.67-3.12A14.48,14.48,0,0,0,95,31.63a12.28,12.28,0,0,0-3-3.61,14.47,14.47,0,0,0-2.58-1.55A10.07,10.07,0,0,0,86,25.52a10.81,10.81,0,0,0-3.8.3,20,20,0,0,0-2.3.86c-.35.14-.71.27-1.11.41,0-.2-.06-.32-.06-.43A17.45,17.45,0,0,0,78.39,22a15,15,0,0,0-.47-1.78A16.57,16.57,0,0,0,76.18,17a11.73,11.73,0,0,0-7-4.71,9.49,9.49,0,0,0-3.67-.18,10.69,10.69,0,0,0-4,1.34c-.41.25-.87.42-1.36.66a7,7,0,0,1-.26-.68c-.15-.55-.27-1.12-.43-1.67a12.24,12.24,0,0,0-1.6-3.39,11.9,11.9,0,0,0-3.59-3.58,13.22,13.22,0,0,0-2.82-1.33A12.23,12.23,0,0,0,49.15,3a9.6,9.6,0,0,0-3.25.21,10.69,10.69,0,0,0-2.65,1,12.7,12.7,0,0,0-4.57,4,15.55,15.55,0,0,0-2.21,5.12,5.34,5.34,0,0,1-.27.65l-.52-.36A20.91,20.91,0,0,0,31.55,11a3.19,3.19,0,0,0-1.32-.31A11.22,11.22,0,0,1,29,10.54,11.3,11.3,0,0,0,20.89,13a12.7,12.7,0,0,0-4,5.31,13.09,13.09,0,0,0-.81,2.58,29.48,29.48,0,0,0-.28,3.25c-.05.67-.06.71-.7.73H15a10.78,10.78,0,0,0-4.55,1,11.93,11.93,0,0,0-4.68,3.8,13.16,13.16,0,0,0-2.66,6.67,12.66,12.66,0,0,0,.36,5.12A12,12,0,0,0,6.88,47a3.37,3.37,0,0,0,2.36,1c3.79,0,7.59,0,11.38,0Zm3-12.56c0,.3,0,.54,0,.78v23c0,.92,0,.92.93.92H71.35v-24c0-.24,0-.47,0-.74ZM71.31,63.1l-.78,0H25.28a2,2,0,0,0-.55,0c-.13,0-.33.17-.34.27a9.94,9.94,0,0,0,0,2l.62,0,24.11,0c.45,0,.9.08,1.35.11a7.15,7.15,0,0,0,.8,0c.39,0,.77-.09,1.16-.1.6,0,1.19,0,1.79,0H70.61c.22,0,.44,0,.7,0Zm0,11.26h-47a4.75,4.75,0,0,0,0,1.68H70.91a.36.36,0,0,0,.41-.42ZM50.24,68.54l-1.05,0c-1.19,0-2.38-.08-3.57-.1-.4,0-.47.07-.48.47,0,.72,0,1.44,0,2.16a1,1,0,0,0,.09.27h5.15A8.34,8.34,0,0,0,50.24,68.54Z"/><path class="cls-1" d="M48.77,38.31c5.2-.2,9.62,4.42,9.59,9.58a9.65,9.65,0,0,1-19.29,0C39.06,42.77,43.4,38.06,48.77,38.31Zm1.78,9.61h0c0-.39,0-.78,0-1.17s-.09-.58-.58-.59c-.76,0-1.52,0-2.28,0-.42,0-.53.08-.55.5,0,.84,0,1.69,0,2.53a.38.38,0,0,0,.43.41h2.59c.27,0,.4-.15.4-.43Zm-4.72-6.78c-1.68.53-3.76,2.66-3.77,3.79.92-.22,1.85-.45,2.79-.66.27-.06.31-.25.36-.45C45.41,43,45.61,42.07,45.83,41.14Zm0,13.57c-.24-1-.44-1.91-.68-2.79a.7.7,0,0,0-.43-.37c-.76-.22-1.54-.41-2.31-.6l-.48-.09A7.82,7.82,0,0,0,45.84,54.71Zm2.93.54a5.45,5.45,0,0,0,1.33-3.4c-.84,0-1.69,0-2.6,0A6.87,6.87,0,0,0,48.77,55.25Zm3.77-11.08,3,.77a7.19,7.19,0,0,0-3.67-3.77Zm-7.7,2.35c-.68.19-1.32.34-1.93.55a4.63,4.63,0,0,0-1,.51c-.37.23-.37.49,0,.68a16.76,16.76,0,0,0,1.91.8,5.53,5.53,0,0,0,1.05.15Zm4-6a5.94,5.94,0,0,0-1.31,3.31,7.4,7.4,0,0,0,2.66-.08A7.68,7.68,0,0,0,48.83,40.54Zm3.05,14A7.42,7.42,0,0,0,55.42,51a1.89,1.89,0,0,0-.49,0c-.68.16-1.35.35-2,.52-.23.06-.42.11-.48.4C52.27,52.75,52.09,53.57,51.88,54.54Zm.94-5.37a6.71,6.71,0,0,0,2.79-.91c.26-.21.29-.45,0-.65a4.47,4.47,0,0,0-.91-.5,16.73,16.73,0,0,0-1.89-.59Z"/></svg>