<svg id="Layer_1" data-name="Layer 1" xmlns="http://www.w3.org/2000/svg" viewBox="0 0 81.96 81.91"><defs><style>.cls-1{fill:#01f1c1;}</style></defs><title>NuagePro</title><path class="cls-1" d="M0,67.5V14.35a1.74,1.74,0,0,0,.15-.26,5.11,5.11,0,0,1,5.2-3.9h7.39v5.15H5.17V56.23h13V0H64.33V56.24H76.78V15.29H69.21V10.21c2.77,0,5.49-.12,8.2,0a4.77,4.77,0,0,1,4.26,3.38c.09.24.19.48.29.72V67.5a.29.29,0,0,0-.11.11c-1,2.91-2.56,4-5.63,4H53.83V76.8h5.08v5.11H23.05V76.74h5.08V71.66H5.34A5.13,5.13,0,0,1,.17,67.84,2.16,2.16,0,0,0,0,67.5ZM59.13,15.36H23.38V56.25H59.13Zm-54,51.12H76.78v-5H5.16Zm54-61.37H23.38v5H59.13ZM33.33,76.73H48.6v-5H33.33Z"/><path class="cls-1" d="M53.55,25.58,37.65,41.5,28.9,32.75l3.48-3.49,5.27,5L49.82,21.84Z"/></svg>