<svg id="Layer_1" data-name="Layer 1" xmlns="http://www.w3.org/2000/svg" viewBox="0 0 81.01 56.1"><defs><style>.cls-1{fill:#01f1c1;}</style></defs><title>NuagePro</title><path class="cls-1" d="M0,8.39c.19-.75.33-1.52.59-2.24A9.34,9.34,0,0,1,9.48,0C17.26,0,25,0,32.82,0H56.67c5,0,9.93,0,14.9,0A9.41,9.41,0,0,1,81,9.64c0,7.92,0,15.84,0,23.75,0,4.44,0,8.87,0,13.3a9.29,9.29,0,0,1-7.77,9.25,22.16,22.16,0,0,1-3.65.15q-13.81,0-27.64,0H9.49A9.41,9.41,0,0,1,.08,48a1.67,1.67,0,0,0-.08-.3Zm34.27,29V49.87H71.5a3.06,3.06,0,0,0,3.27-3.3V31.75c0-.17,0-.35,0-.58H56.12V24.92H74.74c0-.14,0-.23,0-.32,0-5,0-10.08,0-15.12a3,3,0,0,0-3.25-3.22H34.64a3.33,3.33,0,0,0-.38,0v6.14H28V6.29l-.41,0c-6.12,0-12.24,0-18.36,0a3,3,0,0,0-3,3.07c0,1.25,0,2.5,0,3.75V33.28c0,4.48,0,9,0,13.44a3,3,0,0,0,3.14,3.14H28V37.43Z"/><path class="cls-1" d="M42,31.17a17.16,17.16,0,0,1,4.68,8.76L40.58,41.1c-.12-.43-.22-.82-.35-1.21a12,12,0,0,0-4.85-6.06c-1.25-.86-2.63-1.52-4-2.26a.63.63,0,0,0-.5-.06,16.45,16.45,0,0,0-7.37,5.42,9.93,9.93,0,0,0-1.72,3.8,2.6,2.6,0,0,1-.11.34L15.64,40a17,17,0,0,1,4.54-8.79H18.91a8.92,8.92,0,0,1-5.39-1.59,9,9,0,0,1-4.14-8.3,8.89,8.89,0,0,1,5.3-7.86c3.64-1.74,7.13-1.06,10.37,1.15a21.21,21.21,0,0,1,5.77,6.34l.33.52c.15-.22.26-.4.37-.57a23.93,23.93,0,0,1,5-5.73,11.33,11.33,0,0,1,7.23-2.65,9.35,9.35,0,0,1,.93,18.63c-.62.08-1.25,0-1.87.06ZM36.49,24.9a1,1,0,0,0,.18,0c2.39,0,4.78,0,7.17,0a3,3,0,0,0,2.73-2.08,3.16,3.16,0,0,0-1-3.46,3.34,3.34,0,0,0-3.86-.12,12.41,12.41,0,0,0-3.55,3.06A8.68,8.68,0,0,0,36.49,24.9Zm-10.65,0a3.81,3.81,0,0,0-.19-.43,14.55,14.55,0,0,0-3.46-4.15,6.69,6.69,0,0,0-2.9-1.57,3.05,3.05,0,0,0-3.67,2.56,3,3,0,0,0,2.8,3.57C20.87,25,23.32,24.93,25.84,24.93Z"/></svg>