<svg id="Layer_1" data-name="Layer 1" xmlns="http://www.w3.org/2000/svg" viewBox="0 0 343.42 47.65"><defs><style>.cls-1{fill:#01f1c1;fill-rule:evenodd;}</style></defs><title>NuagePro</title><path class="cls-1" d="M13.6,13.25a1.85,1.85,0,0,1,1.94-2.1h4.95V3.59H13.68C6.1,3.59,4.4,9.18,4.4,12.82v4H0v8.82H4.45v22h8.82v-22H19.8l.28-3.47.53-5.35h-7Z"/><path class="cls-1" d="M238.07,11.84a6.29,6.29,0,0,0-4.4-2c-6.16-.46-15.42-.46-15.42-.46h-.05s-9.22,0-15.39.46a6.25,6.25,0,0,0-4.42,2c-1.32,1.39-1.77,4.56-1.77,4.56a69.6,69.6,0,0,0-.46,7.42v3.51a68.31,68.31,0,0,0,.46,7.41s.45,3.18,1.77,4.59c1.67,1.84,3.87,1.77,4.87,2,3.52.36,15,.48,15,.48s9.26-.05,15.42-.48a6.2,6.2,0,0,0,4.4-2c1.32-1.41,1.77-4.59,1.77-4.59a73,73,0,0,0,.43-7.41V23.82c0-3.69-.43-7.42-.43-7.42S239.39,13.23,238.07,11.84Zm-24.41,19.7V18.63l5.41,2.94,6.52,3.54Z"/><path class="cls-1" d="M309,0a4.54,4.54,0,1,0,4.55,4.54A4.54,4.54,0,0,0,309,0Z"/><path class="cls-1" d="M343.21,21c-.6-4.93-2.85-8-9.5-8-3.89,0-6.52,1.44-7.62,3.52H326V13h-7.25V39h7.58V26.08c0-3.39.67-6.67,4.83-6.67s4.49,3.88,4.49,6.91V39h7.8V24.7A30.79,30.79,0,0,0,343.21,21Z"/><polygon class="cls-1" points="304.45 19.89 304.45 38.97 313.54 38.97 313.54 18.34 313.54 12.98 304.45 12.98 304.45 19.89"/><path class="cls-1" d="M135.11,8.61a18.37,18.37,0,0,1-5.76,2.18,9.08,9.08,0,0,0-15.66,6.07,8.8,8.8,0,0,0,.27,2,25.68,25.68,0,0,1-18.65-9.3,8.79,8.79,0,0,0,2.77,11.88A8.73,8.73,0,0,1,94,20.37v.12a8.57,8.57,0,0,0,.62,3.21,9.07,9.07,0,0,0,6.65,5.5,9.07,9.07,0,0,1-2.39.33,8.05,8.05,0,0,1-1.7-.19,9.11,9.11,0,0,0,8.44,6.21A18.24,18.24,0,0,1,94.4,39.36c-.74,0-1.43,0-2.18-.12a26.14,26.14,0,0,0,13.87,4,25.38,25.38,0,0,0,25.72-25.32V16.76a18.59,18.59,0,0,0,4.5-4.61,19.48,19.48,0,0,1-5.19,1.41A8.9,8.9,0,0,0,135.11,8.61Z"/></svg>