<svg xmlns="http://www.w3.org/2000/svg" xmlns:xlink="http://www.w3.org/1999/xlink" width="120" height="120" viewBox="0 0 120 120"><defs><style>.a{fill:#e4e4e4;}.b{fill:url(#a);}.c{fill:#9c1e21;}.d{fill:#e22328;}.e{fill:#c12328;}.f{fill:#9b1e21;}.g{fill:#86181b;}.h{fill:#808182;}.i{fill:none;}.j{fill:#a9a6ab;}.k{fill:url(#b);}.l{fill:#c72128;}.m{fill:#e72428;}.n{fill:#981c20;}.o{fill:#c12228;}.p{fill:#c42228;}.q{fill:#d22b28;}.r{fill:#e82428;}.s{fill:#8c191c;}.t{fill:#d0d1d2;}.u{fill:#941c1f;}.v{fill:#89191b;}.w{fill:#ea242a;}.x{fill:#fff;}</style><linearGradient id="a" x1="0.413" y1="0.484" x2="0.385" y2="0.517" gradientUnits="objectBoundingBox"><stop offset="0" stop-color="#89191b"/><stop offset="1" stop-color="#c12328"/></linearGradient><linearGradient id="b" y1="0.5" x2="1" y2="0.5" gradientUnits="objectBoundingBox"><stop offset="0" stop-color="#801619"/><stop offset="1" stop-color="#ee4041"/></linearGradient></defs><g transform="translate(10 10)"><g transform="translate(8.202)"><path class="a" d="M2857.773,934.718l16.922-21.757-26.6,7.882A165.524,165.524,0,0,0,2857.773,934.718Z" transform="translate(-2820.656 -912.961)"/><path class="b" d="M2371.246,1304.512a151.864,151.864,0,0,0,23.4,2.986l.93-1.2a101.367,101.367,0,0,1-12.162-16.322c-6.456,6.959-11.441,13.512-12.18,14.493a104.049,104.049,0,0,0,5.428,26.147l8.063-10.366C2377.418,1312.309,2371.246,1304.512,2371.246,1304.512Z" transform="translate(-2370.901 -1268.552)"/><path class="c" d="M3503.756,1525.62c-1.168.928-5.247,4.511-14.072,15.371a132.346,132.346,0,0,0,19.692,14.143s-4.785-10.943-5.21-29.722c-.069.056-.137.113-.208.166Z" transform="translate(-3425.78 -1490.603)"/><path class="d" d="M3343.705,916.409l-27.586-3.448s3.055,8.657,11.041,19.661C3331.321,928.147,3336.715,922.775,3343.705,916.409Z" transform="translate(-3262.08 -912.961)"/><path class="e" d="M2799.941,1081.261l12.25-15.75a165.683,165.683,0,0,1-9.679-13.875A99.107,99.107,0,0,0,2799.941,1081.261Z" transform="translate(-2775.074 -1043.754)"/><path class="f" d="M2600.467,1051.636a98.2,98.2,0,0,0-14.923,13.547,101.367,101.367,0,0,0,12.162,16.322l.189-.244A99.1,99.1,0,0,1,2600.467,1051.636Z" transform="translate(-2573.028 -1043.754)"/><path class="g" d="M3350.508,1799.523c-2.425,2.985-5.207,6.515-8.387,10.695l28.079,3.448A132.381,132.381,0,0,1,3350.508,1799.523Z" transform="translate(-3286.604 -1749.134)"/><path class="h" d="M2891.429,1829l25.616-5.419a88.759,88.759,0,0,1-16.054-9.889A115.228,115.228,0,0,0,2891.429,1829Z" transform="translate(-2861.527 -1762.496)"/><path class="i" d="M2803.378,1582.318l.924.041q-.5-.524-.989-1.064C2803.333,1581.638,2803.355,1581.979,2803.378,1582.318Z" transform="translate(-2778.42 -1543.309)"/><path class="j" d="M3032.487,951.252l.059-.051s.031-.108.117-.328a155.9,155.9,0,0,1,2.646-37.912l-16.922,21.757A205.58,205.58,0,0,0,3032.487,951.252Z" transform="translate(-2981.27 -912.961)"/><path class="k" d="M2474.8,1822.636,2466.739,1833l24.138,4.433C2486.263,1834.5,2480.22,1828.527,2474.8,1822.636Z" transform="translate(-2460.976 -1770.933)"/><path class="l" d="M3265.6,950.873c.528-1.343,3.149-6.918,13.687-18.25-7.986-11-11.041-19.661-11.041-19.661A155.881,155.881,0,0,0,3265.6,950.873Z" transform="translate(-3214.206 -912.961)"/><path class="m" d="M3297.392,1529.076a220.764,220.764,0,0,1-26.508,3.536c3.771,3.95,7.929,7.965,12.436,11.835C3292.145,1533.587,3296.224,1530,3297.392,1529.076Z" transform="translate(-3219.416 -1494.058)"/><path class="n" d="M3071.06,1591.381a78.006,78.006,0,0,0-11.4,12.6,88.762,88.762,0,0,0,16.054,9.89,92.655,92.655,0,0,1-4.083-22.527Z" transform="translate(-3020.197 -1552.782)"/><path class="o" d="M3270.31,1591.294l-.034,0a92.652,92.652,0,0,0,4.083,22.527c3.18-4.18,5.961-7.71,8.387-10.694C3278.24,1599.259,3274.081,1595.245,3270.31,1591.294Z" transform="translate(-3218.842 -1552.74)"/><path class="p" d="M2368.64,930.3s-4.55,14.665-2.965,34.937c.739-.981,5.725-7.534,12.18-14.493A97.194,97.194,0,0,1,2368.64,930.3Z" transform="translate(-2365.339 -929.311)"/><path class="q" d="M2447.542,937.193l-24.138-6.9a97.194,97.194,0,0,0,9.215,20.443A98.2,98.2,0,0,1,2447.542,937.193Z" transform="translate(-2420.104 -929.311)"/><path class="r" d="M2384.882,1561.4l9.922-12.756a151.878,151.878,0,0,1-23.4-2.986S2377.574,1553.459,2384.882,1561.4Z" transform="translate(-2371.056 -1509.702)"/><path class="n" d="M3510.376,989.844a106.952,106.952,0,0,0,13.268,15.076s-.121.081-.373.281l.2-.042c.071-.052.139-.11.208-.166a130.084,130.084,0,0,1,3.24-31.361C3519.931,980,3514.537,985.369,3510.376,989.844Z" transform="translate(-3445.296 -970.183)"/><g transform="translate(23.747 21.757)"><path class="s" d="M2810.272,1312.6c.118-.1.235-.207.354-.308a205.523,205.523,0,0,1-14.1-16.534l-12.25,15.75-.189.244-.93,1.2c1.132.061,2.262.112,3.4.152q1.178.042,2.356.07,2.823.066,5.647.054,2.737-.011,5.473-.093,2.631-.077,5.26-.216,1.269-.066,2.538-.147.622-.039,1.244-.082l.615-.043.318-.023C2810.056,1312.618,2810.235,1312.634,2810.272,1312.6Z" transform="translate(-2783.157 -1295.76)"/><path class="t" d="M2809.4,1626.787a115.232,115.232,0,0,1,9.562-15.308,108.865,108.865,0,0,1-13.581-12.145q-.461-.019-.924-.041A121.831,121.831,0,0,0,2809.4,1626.787Z" transform="translate(-2803.245 -1582.041)"/></g><path class="i" d="M3266.64,1580c-.086.22-.117.328-.117.328l-.059.051.214.224Q3266.659,1580.3,3266.64,1580Z" transform="translate(-3215.247 -1542.086)"/><path class="u" d="M2618.516,1598.2l-9.922,12.756c5.418,5.891,11.461,11.863,16.075,14.8a121.848,121.848,0,0,1-4.943-27.494Q2619.123,1598.233,2618.516,1598.2Z" transform="translate(-2594.768 -1559.252)"/><path class="v" d="M3296.519,1273.969a106.987,106.987,0,0,1-13.268-15.076c-10.538,11.333-13.158,16.907-13.687,18.251q.019.3.038.6l.037.039a220.735,220.735,0,0,0,26.508-3.536C3296.4,1274.05,3296.519,1273.969,3296.519,1273.969Z" transform="translate(-3218.171 -1239.231)"/><path class="w" d="M2820.715,1592.535a108.847,108.847,0,0,0,13.581,12.145,78.037,78.037,0,0,1,11.4-12.6A217.427,217.427,0,0,1,2820.715,1592.535Z" transform="translate(-2794.833 -1553.485)"/><path class="i" d="M3260.583,1586.662c-.119.1-.236.206-.354.308l.571-.042c0-.014,0-.028,0-.042Z" transform="translate(-3209.366 -1548.371)"/><path class="i" d="M3270.233,1590.651l.034,0-.037-.039C3270.231,1590.623,3270.232,1590.637,3270.233,1590.651Z" transform="translate(-3218.799 -1552.094)"/></g><g transform="translate(0 72.198)"><path class="x" d="M2232.026,2194.364l-8.232-10.8v-.083h-2.766v15.451h2.766v-10.8l8.232,10.795h0l.018.024.031-.024h2.715v-15.451h-2.764Z" transform="translate(-2221.029 -2183.469)"/><path class="x" d="M2700.426,2183.5h-6.679l-.269,2.3h4.182v13.156h2.766V2185.8h4.251l-.272-2.3Z" transform="translate(-2666.625 -2183.488)"/><path class="x" d="M2506.415,2185.8l-.271-2.3h-9.714v15.451h9.714l.271-2.294h-7.22v-4.521h6.949v-2.292H2499.2V2185.8Z" transform="translate(-2480.777 -2183.488)"/><path class="x" d="M2920.144,2191.919l-2.615,5.295-2.615-5.295V2186.4h-2.744v5.522l-2.613,5.295-2.616-5.295V2186.4h-2.732v6.16l3.977,8.053v1.074h2.767v-1.127l2.59-5.247,2.605,5.273v1.1h2.765v-1.1l3.964-8.028v-6.16h-2.732Z" transform="translate(-2865.378 -2186.217)"/><path class="x" d="M3550.33,2190.918h-4.222v-4.959h4.152a2.607,2.607,0,0,1,.07,4.959m4.5-2.48a4.95,4.95,0,0,0-4.322-5.2l-5.881-.008v.016h-1.284v15.451h2.766v-5.044h3.971l2.368,5.585,2.516-1.068-2.268-5.345A5.005,5.005,0,0,0,3554.828,2188.438Z" transform="translate(-3468.186 -2183.226)"/><path class="x" d="M3788.165,2193.081a5.011,5.011,0,0,0,2.131-4.382v-5.128l-2.731.27v4.858a2.2,2.2,0,0,1-1.77,2.48h-4.052V2183.5h-2.765v15.451h2.765v-5.044h3.8l2.367,5.585,2.515-1.068Z" transform="translate(-3690.431 -2183.487)"/><path class="x" d="M3255.487,2196.177h0a4.982,4.982,0,1,1,4.981-4.981,4.981,4.981,0,0,1-4.981,4.981m0-12.674a7.692,7.692,0,1,0,7.691,7.692A7.693,7.693,0,0,0,3255.487,2183.5Z" transform="translate(-3189.438 -2183.487)"/><path class="x" d="M2384.644,2521.141h-1.493v8.338h5.422l.145-1.238h-4.074Z" transform="translate(-2373.937 -2501.935)"/><path class="x" d="M2859.833,2521.141h-1.492v8.338h5.422l.147-1.238h-4.077Z" transform="translate(-2822.118 -2501.935)"/><path class="x" d="M2609.662,2524.217l-1.876,3.786-1.876-3.786v-3.077h-1.492v3.077l2.615,5.273h1.508l2.615-5.273v-3.077h-1.493Z" transform="translate(-2582.626 -2501.935)"/><path class="x" d="M3119.852,2523.406l-1.854,2.47-1.858-2.47v-2.266h-1.491v2.6l2.6,3.465v2.244h1.492v-2.25l2.6-3.458v-2.6h-1.493Z" transform="translate(-3063.858 -2501.935)"/><path class="x" d="M3578.55,2527.634l-2.792-6.493h-1.492v8.338h1.492v-4.868l2.089,4.858,0,.01h1.5l0-.01,1.692-4.424v4.434h1.492v-8.338h-1.492Z" transform="translate(-3497.352 -2501.935)"/><path class="x" d="M3341.99,2521.141h-3.6l-.146,1.239h2.257v7.1h1.492v-7.1h2.293l-.144-1.239Z" transform="translate(-3274.742 -2501.935)"/><path class="x" d="M2500.45,2522.379l-.145-1.239h-5.242v8.338h5.242l.145-1.238h-3.895V2525.8h3.75v-1.24h-3.75v-2.184Z" transform="translate(-2479.487 -2501.935)"/><path class="x" d="M2748.559,2522.379l-.146-1.239h-5.241v8.338h5.241l.146-1.238h-3.9V2525.8h3.75v-1.24h-3.75v-2.184Z" transform="translate(-2713.494 -2501.935)"/><path class="x" d="M3465.049,2522.379l-.147-1.239h-5.241v8.338h5.241l.147-1.238h-3.9V2525.8h3.749v-1.24h-3.749v-2.184Z" transform="translate(-3389.261 -2501.935)"/><path class="x" d="M3024.733,2521.5a3.454,3.454,0,0,1,.955.211l.579.212.591-1.251a4.417,4.417,0,0,0-1.01-.417,4.528,4.528,0,0,0-1.1-.155,2.626,2.626,0,0,0-1.833.642,2.3,2.3,0,0,0-.726,1.776,1.985,1.985,0,0,0,.75,1.63c.02.021.482.287,1.388.8a1.214,1.214,0,0,1,.744,1.012q0,1.19-1.848,1.192c-.1,0-.751.01-.948-.008l.408,1.447.536.026a3.843,3.843,0,0,0,2.328-.693,2.458,2.458,0,0,0,1.052-2.1,2.009,2.009,0,0,0-.768-1.656q-.136-.1-1.427-.773c-.515-.267-.783-.577-.771-.934a.909.909,0,0,1,1.1-.965" transform="translate(-2976.656 -2500.956)"/><path class="x" d="M3251.231,2521.5a3.471,3.471,0,0,1,.957.211l.577.212.593-1.251a4.443,4.443,0,0,0-1.012-.417,4.521,4.521,0,0,0-1.1-.155,2.632,2.632,0,0,0-1.832.642,2.3,2.3,0,0,0-.725,1.776,1.982,1.982,0,0,0,.749,1.63c.022.021.481.287,1.387.8a1.211,1.211,0,0,1,.743,1.012c0,.793-.613,1.192-1.845,1.192-.1,0-.75.01-.947-.008l.408,1.447.534.026a3.839,3.839,0,0,0,2.328-.693,2.46,2.46,0,0,0,1.054-2.1,2.011,2.011,0,0,0-.769-1.656q-.136-.1-1.429-.773c-.512-.267-.78-.577-.766-.934a.906.906,0,0,1,1.093-.965" transform="translate(-3190.283 -2500.956)"/><path class="x" d="M3739.847,2524.174q-.135-.1-1.428-.773c-.512-.267-.78-.577-.768-.934a.909.909,0,0,1,1.1-.965,3.469,3.469,0,0,1,.956.211c.386.141.579.212.572.212l.6-1.251a4.464,4.464,0,0,0-1.012-.417,4.544,4.544,0,0,0-1.1-.155,2.631,2.631,0,0,0-1.833.642,2.3,2.3,0,0,0-.726,1.776,1.989,1.989,0,0,0,.751,1.63c.018.021.482.287,1.386.8a1.211,1.211,0,0,1,.743,1.012q0,1.19-1.845,1.192c-.1,0-.752.01-.948-.008l.406,1.447.537.026a3.836,3.836,0,0,0,2.327-.693,2.457,2.457,0,0,0,1.054-2.1,2,2,0,0,0-.771-1.656" transform="translate(-3650.088 -2500.956)"/></g></g><rect class="i" width="120" height="120"/></svg>